solid OpenSCAD_Model
  facet normal 0.943883 0.330279 0
    outer loop
      vertex 17.1299 3.45594 0
      vertex 17.0183 3.77479 0
      vertex 17.0183 3.77479 10
    endloop
  endfacet
  facet normal 0.943883 0.330279 0
    outer loop
      vertex 17.1299 3.45594 10
      vertex 17.1299 3.45594 0
      vertex 17.0183 3.77479 10
    endloop
  endfacet
  facet normal 0.846724 0.532032 0
    outer loop
      vertex 17.0183 3.77479 0
      vertex 15.9818 5.42436 0
      vertex 15.9818 5.42436 10
    endloop
  endfacet
  facet normal 0.846724 0.532032 0
    outer loop
      vertex 17.0183 3.77479 10
      vertex 17.0183 3.77479 0
      vertex 15.9818 5.42436 10
    endloop
  endfacet
  facet normal 0.707107 0.707107 0
    outer loop
      vertex 15.9818 5.42436 0
      vertex 14.6042 6.80193 0
      vertex 14.6042 6.80193 10
    endloop
  endfacet
  facet normal 0.707107 0.707107 0
    outer loop
      vertex 15.9818 5.42436 10
      vertex 15.9818 5.42436 0
      vertex 14.6042 6.80193 10
    endloop
  endfacet
  facet normal 0.532032 0.846724 0
    outer loop
      vertex 14.6042 6.80193 0
      vertex 12.9547 7.83843 0
      vertex 12.9547 7.83843 10
    endloop
  endfacet
  facet normal 0.532032 0.846724 0
    outer loop
      vertex 14.6042 6.80193 10
      vertex 14.6042 6.80193 0
      vertex 12.9547 7.83843 10
    endloop
  endfacet
  facet normal 0.330279 0.943883 0
    outer loop
      vertex 12.9547 7.83843 0
      vertex 11.1158 8.48187 0
      vertex 11.1158 8.48187 10
    endloop
  endfacet
  facet normal 0.330279 0.943883 0
    outer loop
      vertex 12.9547 7.83843 10
      vertex 12.9547 7.83843 0
      vertex 11.1158 8.48187 10
    endloop
  endfacet
  facet normal 0.111965 0.993712 0
    outer loop
      vertex 11.1158 8.48187 0
      vertex 9.17987 8.7 0
      vertex 9.17987 8.7 10
    endloop
  endfacet
  facet normal 0.111965 0.993712 0
    outer loop
      vertex 11.1158 8.48187 10
      vertex 11.1158 8.48187 0
      vertex 9.17987 8.7 10
    endloop
  endfacet
  facet normal -0.111965 0.993712 0
    outer loop
      vertex 9.17987 8.7 0
      vertex 7.24394 8.48187 0
      vertex 7.24394 8.48187 10
    endloop
  endfacet
  facet normal -0.111965 0.993712 0
    outer loop
      vertex 9.17987 8.7 10
      vertex 9.17987 8.7 0
      vertex 7.24394 8.48187 10
    endloop
  endfacet
  facet normal -0.330279 0.943883 0
    outer loop
      vertex 7.24394 8.48187 0
      vertex 5.40508 7.83843 0
      vertex 5.40508 7.83843 10
    endloop
  endfacet
  facet normal -0.330279 0.943883 0
    outer loop
      vertex 7.24394 8.48187 10
      vertex 7.24394 8.48187 0
      vertex 5.40508 7.83843 10
    endloop
  endfacet
  facet normal -0.532032 0.846724 0
    outer loop
      vertex 5.40508 7.83843 0
      vertex 3.75551 6.80193 0
      vertex 3.75551 6.80193 10
    endloop
  endfacet
  facet normal -0.532032 0.846724 0
    outer loop
      vertex 5.40508 7.83843 10
      vertex 5.40508 7.83843 0
      vertex 3.75551 6.80193 10
    endloop
  endfacet
  facet normal -0.707107 0.707107 0
    outer loop
      vertex 3.75551 6.80193 0
      vertex 2.37794 5.42436 0
      vertex 2.37794 5.42436 10
    endloop
  endfacet
  facet normal -0.707107 0.707107 0
    outer loop
      vertex 3.75551 6.80193 10
      vertex 3.75551 6.80193 0
      vertex 2.37794 5.42436 10
    endloop
  endfacet
  facet normal -0.846724 0.532032 0
    outer loop
      vertex 2.37794 5.42436 0
      vertex 1.34144 3.77479 0
      vertex 1.34144 3.77479 10
    endloop
  endfacet
  facet normal -0.846724 0.532032 0
    outer loop
      vertex 2.37794 5.42436 10
      vertex 2.37794 5.42436 0
      vertex 1.34144 3.77479 10
    endloop
  endfacet
  facet normal -0.943883 0.330279 0
    outer loop
      vertex 1.34144 3.77479 0
      vertex 0.697997 1.93593 0
      vertex 0.697997 1.93593 10
    endloop
  endfacet
  facet normal -0.943883 0.330279 0
    outer loop
      vertex 1.34144 3.77479 10
      vertex 1.34144 3.77479 0
      vertex 0.697997 1.93593 10
    endloop
  endfacet
  facet normal -0.993712 0.111965 0
    outer loop
      vertex 0.697997 1.93593 0
      vertex 0.479869 0 0
      vertex 0.479869 0 10
    endloop
  endfacet
  facet normal -0.993712 0.111965 0
    outer loop
      vertex 0.697997 1.93593 10
      vertex 0.697997 1.93593 0
      vertex 0.479869 0 10
    endloop
  endfacet
  facet normal -0.993712 -0.111965 -0
    outer loop
      vertex 0.479869 0 10
      vertex 0.479869 0 0
      vertex 0.697997 -1.93593 0
    endloop
  endfacet
  facet normal -0.993712 -0.111965 -0
    outer loop
      vertex 0.697997 -1.93593 10
      vertex 0.479869 0 10
      vertex 0.697997 -1.93593 0
    endloop
  endfacet
  facet normal -0.943883 -0.330279 -0
    outer loop
      vertex 0.697997 -1.93593 10
      vertex 0.697997 -1.93593 0
      vertex 1.34144 -3.77479 0
    endloop
  endfacet
  facet normal -0.943883 -0.330279 -0
    outer loop
      vertex 1.34144 -3.77479 10
      vertex 0.697997 -1.93593 10
      vertex 1.34144 -3.77479 0
    endloop
  endfacet
  facet normal -0.846724 -0.532032 -0
    outer loop
      vertex 1.34144 -3.77479 10
      vertex 1.34144 -3.77479 0
      vertex 2.37794 -5.42436 0
    endloop
  endfacet
  facet normal -0.846724 -0.532032 -0
    outer loop
      vertex 2.37794 -5.42436 10
      vertex 1.34144 -3.77479 10
      vertex 2.37794 -5.42436 0
    endloop
  endfacet
  facet normal -0.707107 -0.707107 -0
    outer loop
      vertex 2.37794 -5.42436 10
      vertex 2.37794 -5.42436 0
      vertex 3.75551 -6.80193 0
    endloop
  endfacet
  facet normal -0.707107 -0.707107 -0
    outer loop
      vertex 3.75551 -6.80193 10
      vertex 2.37794 -5.42436 10
      vertex 3.75551 -6.80193 0
    endloop
  endfacet
  facet normal -0.532032 -0.846724 -0
    outer loop
      vertex 3.75551 -6.80193 10
      vertex 3.75551 -6.80193 0
      vertex 5.40508 -7.83843 0
    endloop
  endfacet
  facet normal -0.532032 -0.846724 -0
    outer loop
      vertex 5.40508 -7.83843 10
      vertex 3.75551 -6.80193 10
      vertex 5.40508 -7.83843 0
    endloop
  endfacet
  facet normal -0.330279 -0.943883 -0
    outer loop
      vertex 5.40508 -7.83843 10
      vertex 5.40508 -7.83843 0
      vertex 7.24394 -8.48187 0
    endloop
  endfacet
  facet normal -0.330279 -0.943883 -0
    outer loop
      vertex 7.24394 -8.48187 10
      vertex 5.40508 -7.83843 10
      vertex 7.24394 -8.48187 0
    endloop
  endfacet
  facet normal -0.111965 -0.993712 -0
    outer loop
      vertex 7.24394 -8.48187 10
      vertex 7.24394 -8.48187 0
      vertex 9.17987 -8.7 0
    endloop
  endfacet
  facet normal -0.111965 -0.993712 -0
    outer loop
      vertex 9.17987 -8.7 10
      vertex 7.24394 -8.48187 10
      vertex 9.17987 -8.7 0
    endloop
  endfacet
  facet normal 0.111965 -0.993712 0
    outer loop
      vertex 9.17987 -8.7 10
      vertex 9.17987 -8.7 0
      vertex 11.1158 -8.48187 0
    endloop
  endfacet
  facet normal 0.111965 -0.993712 0
    outer loop
      vertex 11.1158 -8.48187 10
      vertex 9.17987 -8.7 10
      vertex 11.1158 -8.48187 0
    endloop
  endfacet
  facet normal 0.330279 -0.943883 0
    outer loop
      vertex 11.1158 -8.48187 10
      vertex 11.1158 -8.48187 0
      vertex 12.9547 -7.83843 0
    endloop
  endfacet
  facet normal 0.330279 -0.943883 0
    outer loop
      vertex 12.9547 -7.83843 10
      vertex 11.1158 -8.48187 10
      vertex 12.9547 -7.83843 0
    endloop
  endfacet
  facet normal 0.532032 -0.846724 0
    outer loop
      vertex 12.9547 -7.83843 10
      vertex 12.9547 -7.83843 0
      vertex 14.6042 -6.80193 0
    endloop
  endfacet
  facet normal 0.532032 -0.846724 0
    outer loop
      vertex 14.6042 -6.80193 10
      vertex 12.9547 -7.83843 10
      vertex 14.6042 -6.80193 0
    endloop
  endfacet
  facet normal 0.707107 -0.707107 0
    outer loop
      vertex 14.6042 -6.80193 10
      vertex 14.6042 -6.80193 0
      vertex 15.9818 -5.42436 0
    endloop
  endfacet
  facet normal 0.707107 -0.707107 0
    outer loop
      vertex 15.9818 -5.42436 10
      vertex 14.6042 -6.80193 10
      vertex 15.9818 -5.42436 0
    endloop
  endfacet
  facet normal 0.846724 -0.532032 0
    outer loop
      vertex 15.9818 -5.42436 10
      vertex 15.9818 -5.42436 0
      vertex 17.0183 -3.77479 0
    endloop
  endfacet
  facet normal 0.846724 -0.532032 0
    outer loop
      vertex 17.0183 -3.77479 10
      vertex 15.9818 -5.42436 10
      vertex 17.0183 -3.77479 0
    endloop
  endfacet
  facet normal 0.943883 -0.330279 0
    outer loop
      vertex 17.0183 -3.77479 10
      vertex 17.0183 -3.77479 0
      vertex 17.1299 -3.45594 0
    endloop
  endfacet
  facet normal 0.943883 -0.330279 0
    outer loop
      vertex 17.1299 -3.45594 10
      vertex 17.0183 -3.77479 10
      vertex 17.1299 -3.45594 0
    endloop
  endfacet
  facet normal 0 -0 -1
    outer loop
      vertex 1.34144 3.77479 0
      vertex 8.37085 0.587786 0
      vertex 0.697997 1.93593 0
    endloop
  endfacet
  facet normal 0 0 -1
    outer loop
      vertex 8.37085 0.587786 0
      vertex 3.75551 6.80193 0
      vertex 5.40508 7.83843 0
    endloop
  endfacet
  facet normal 0 0 -1
    outer loop
      vertex 8.37085 0.587786 0
      vertex 2.37794 5.42436 0
      vertex 3.75551 6.80193 0
    endloop
  endfacet
  facet normal 0 -0 -1
    outer loop
      vertex 9.17987 8.7 0
      vertex 9.48889 0.951056 0
      vertex 7.24394 8.48187 0
    endloop
  endfacet
  facet normal 0 0 -1
    outer loop
      vertex 8.37085 0.587786 0
      vertex 5.40508 7.83843 0
      vertex 7.24394 8.48187 0
    endloop
  endfacet
  facet normal 0 0 -1
    outer loop
      vertex 1.34144 3.77479 0
      vertex 2.37794 5.42436 0
      vertex 8.37085 0.587786 0
    endloop
  endfacet
  facet normal -0 0 -1
    outer loop
      vertex 14.6042 6.80193 0
      vertex 9.48889 0.951056 0
      vertex 12.9547 7.83843 0
    endloop
  endfacet
  facet normal 0 0 -1
    outer loop
      vertex 9.17987 8.7 0
      vertex 11.1158 8.48187 0
      vertex 9.48889 0.951056 0
    endloop
  endfacet
  facet normal 0 0 -1
    outer loop
      vertex 10.1799 0 0
      vertex 9.48889 0.951056 0
      vertex 15.9818 5.42436 0
    endloop
  endfacet
  facet normal -0 0 -1
    outer loop
      vertex 17.1299 3.45594 0
      vertex 10.1799 0 0
      vertex 17.0183 3.77479 0
    endloop
  endfacet
  facet normal 0 0 -1
    outer loop
      vertex 9.48889 0.951056 0
      vertex 14.6042 6.80193 0
      vertex 15.9818 5.42436 0
    endloop
  endfacet
  facet normal 0 0 -1
    outer loop
      vertex 10.1799 0 0
      vertex 17.1299 3.45594 0
      vertex 17.1299 -3.45594 0
    endloop
  endfacet
  facet normal 0 0 -1
    outer loop
      vertex 15.9818 -5.42436 0
      vertex 9.48889 -0.951056 0
      vertex 10.1799 0 0
    endloop
  endfacet
  facet normal 0 0 -1
    outer loop
      vertex 25.3889 0.951056 0
      vertex 31.8818 5.42436 0
      vertex 26.0799 0 0
    endloop
  endfacet
  facet normal 0 -0 -1
    outer loop
      vertex 18.2779 5.42436 0
      vertex 24.2709 0.587786 0
      vertex 17.2414 3.77479 0
    endloop
  endfacet
  facet normal 0 -0 -1
    outer loop
      vertex 19.6555 6.80193 0
      vertex 24.2709 0.587786 0
      vertex 18.2779 5.42436 0
    endloop
  endfacet
  facet normal 0 -0 -1
    outer loop
      vertex 21.3051 7.83843 0
      vertex 24.2709 0.587786 0
      vertex 19.6555 6.80193 0
    endloop
  endfacet
  facet normal 0 -0 -1
    outer loop
      vertex 23.1439 8.48187 0
      vertex 24.2709 0.587786 0
      vertex 21.3051 7.83843 0
    endloop
  endfacet
  facet normal 0 -0 -1
    outer loop
      vertex 25.0799 8.7 0
      vertex 25.3889 0.951056 0
      vertex 23.1439 8.48187 0
    endloop
  endfacet
  facet normal -0 0 -1
    outer loop
      vertex 27.0158 8.48187 0
      vertex 25.3889 0.951056 0
      vertex 25.0799 8.7 0
    endloop
  endfacet
  facet normal 0 -0 -1
    outer loop
      vertex 28.8547 7.83843 0
      vertex 30.5042 6.80193 0
      vertex 25.3889 0.951056 0
    endloop
  endfacet
  facet normal 0 -0 -1
    outer loop
      vertex 30.5042 6.80193 0
      vertex 31.8818 5.42436 0
      vertex 25.3889 0.951056 0
    endloop
  endfacet
  facet normal 0 0 -1
    outer loop
      vertex 26.0799 0 0
      vertex 32.9183 3.77479 0
      vertex 33.5617 1.93593 0
    endloop
  endfacet
  facet normal 0 0 -1
    outer loop
      vertex 26.0799 0 0
      vertex 33.5617 1.93593 0
      vertex 33.7799 0 0
    endloop
  endfacet
  facet normal 0 0 -1
    outer loop
      vertex 26.0799 0 0
      vertex 33.7799 0 0
      vertex 33.5617 -1.93593 0
    endloop
  endfacet
  facet normal 0 0 -1
    outer loop
      vertex 31.8818 -5.42436 0
      vertex 26.0799 0 0
      vertex 32.9183 -3.77479 0
    endloop
  endfacet
  facet normal 0 0 -1
    outer loop
      vertex 30.5042 -6.80193 0
      vertex 25.3889 -0.951056 0
      vertex 31.8818 -5.42436 0
    endloop
  endfacet
  facet normal 0 0 -1
    outer loop
      vertex 28.8547 -7.83843 0
      vertex 25.3889 -0.951056 0
      vertex 30.5042 -6.80193 0
    endloop
  endfacet
  facet normal 0 0 -1
    outer loop
      vertex 27.0158 -8.48187 0
      vertex 25.3889 -0.951056 0
      vertex 28.8547 -7.83843 0
    endloop
  endfacet
  facet normal 0 0 -1
    outer loop
      vertex 25.0799 -8.7 0
      vertex 25.3889 -0.951056 0
      vertex 27.0158 -8.48187 0
    endloop
  endfacet
  facet normal 0 0 -1
    outer loop
      vertex 23.1439 -8.48187 0
      vertex 25.3889 -0.951056 0
      vertex 25.0799 -8.7 0
    endloop
  endfacet
  facet normal 0 -0 -1
    outer loop
      vertex 24.2709 -0.587786 0
      vertex 25.3889 -0.951056 0
      vertex 23.1439 -8.48187 0
    endloop
  endfacet
  facet normal 0 0 -1
    outer loop
      vertex 19.6555 -6.80193 0
      vertex 24.2709 -0.587786 0
      vertex 21.3051 -7.83843 0
    endloop
  endfacet
  facet normal 0 -0 -1
    outer loop
      vertex 8.37085 0.587786 0
      vertex 8.37085 -0.587786 0
      vertex 0.479869 0 0
    endloop
  endfacet
  facet normal 0 0 -1
    outer loop
      vertex 9.48889 -0.951056 0
      vertex 12.9547 -7.83843 0
      vertex 11.1158 -8.48187 0
    endloop
  endfacet
  facet normal 0 0 -1
    outer loop
      vertex 18.2779 -5.42436 0
      vertex 24.2709 -0.587786 0
      vertex 19.6555 -6.80193 0
    endloop
  endfacet
  facet normal 0 0 -1
    outer loop
      vertex 17.2414 -3.77479 0
      vertex 24.2709 -0.587786 0
      vertex 18.2779 -5.42436 0
    endloop
  endfacet
  facet normal 0 0 -1
    outer loop
      vertex 17.1299 -3.45594 0
      vertex 24.2709 -0.587786 0
      vertex 17.2414 -3.77479 0
    endloop
  endfacet
  facet normal 0 0 -1
    outer loop
      vertex 9.48889 -0.951056 0
      vertex 14.6042 -6.80193 0
      vertex 12.9547 -7.83843 0
    endloop
  endfacet
  facet normal 0 0 -1
    outer loop
      vertex 17.1299 3.45594 0
      vertex 24.2709 -0.587786 0
      vertex 17.1299 -3.45594 0
    endloop
  endfacet
  facet normal 0 0 -1
    outer loop
      vertex 9.48889 -0.951056 0
      vertex 15.9818 -5.42436 0
      vertex 14.6042 -6.80193 0
    endloop
  endfacet
  facet normal -0 -0 -1
    outer loop
      vertex 24.2709 0.587786 0
      vertex 24.2709 -0.587786 0
      vertex 17.1299 3.45594 0
    endloop
  endfacet
  facet normal 0 -0 -1
    outer loop
      vertex 9.48889 -0.951056 0
      vertex 11.1158 -8.48187 0
      vertex 9.17987 -8.7 0
    endloop
  endfacet
  facet normal 0 0 -1
    outer loop
      vertex 9.48889 -0.951056 0
      vertex 9.17987 -8.7 0
      vertex 7.24394 -8.48187 0
    endloop
  endfacet
  facet normal 0 0 -1
    outer loop
      vertex 8.37085 -0.587786 0
      vertex 7.24394 -8.48187 0
      vertex 5.40508 -7.83843 0
    endloop
  endfacet
  facet normal 0 0 -1
    outer loop
      vertex 8.37085 -0.587786 0
      vertex 5.40508 -7.83843 0
      vertex 3.75551 -6.80193 0
    endloop
  endfacet
  facet normal 0 0 -1
    outer loop
      vertex 8.37085 -0.587786 0
      vertex 3.75551 -6.80193 0
      vertex 2.37794 -5.42436 0
    endloop
  endfacet
  facet normal 0 0 -1
    outer loop
      vertex 8.37085 -0.587786 0
      vertex 2.37794 -5.42436 0
      vertex 1.34144 -3.77479 0
    endloop
  endfacet
  facet normal 0 0 -1
    outer loop
      vertex 8.37085 -0.587786 0
      vertex 1.34144 -3.77479 0
      vertex 0.697997 -1.93593 0
    endloop
  endfacet
  facet normal -0 0 -1
    outer loop
      vertex 8.37085 -0.587786 0
      vertex 0.697997 -1.93593 0
      vertex 0.479869 0 0
    endloop
  endfacet
  facet normal 0 -0 -1
    outer loop
      vertex 0.697997 1.93593 0
      vertex 8.37085 0.587786 0
      vertex 0.479869 0 0
    endloop
  endfacet
  facet normal 0 0 -1
    outer loop
      vertex 10.1799 0 0
      vertex 17.1299 -3.45594 0
      vertex 17.0183 -3.77479 0
    endloop
  endfacet
  facet normal -0 0 -1
    outer loop
      vertex 9.48889 -0.951056 0
      vertex 7.24394 -8.48187 0
      vertex 8.37085 -0.587786 0
    endloop
  endfacet
  facet normal 0 0 -1
    outer loop
      vertex 10.1799 0 0
      vertex 17.0183 -3.77479 0
      vertex 15.9818 -5.42436 0
    endloop
  endfacet
  facet normal 0 -0 -1
    outer loop
      vertex 15.9818 5.42436 0
      vertex 17.0183 3.77479 0
      vertex 10.1799 0 0
    endloop
  endfacet
  facet normal 0 0 -1
    outer loop
      vertex 7.24394 8.48187 0
      vertex 9.48889 0.951056 0
      vertex 8.37085 0.587786 0
    endloop
  endfacet
  facet normal 0 -0 -1
    outer loop
      vertex 11.1158 8.48187 0
      vertex 12.9547 7.83843 0
      vertex 9.48889 0.951056 0
    endloop
  endfacet
  facet normal 0 -0 -1
    outer loop
      vertex 17.2414 3.77479 0
      vertex 24.2709 0.587786 0
      vertex 17.1299 3.45594 0
    endloop
  endfacet
  facet normal 0 0 -1
    outer loop
      vertex 26.0799 0 0
      vertex 33.5617 -1.93593 0
      vertex 32.9183 -3.77479 0
    endloop
  endfacet
  facet normal 0 0 -1
    outer loop
      vertex 21.3051 -7.83843 0
      vertex 24.2709 -0.587786 0
      vertex 23.1439 -8.48187 0
    endloop
  endfacet
  facet normal 0 0 -1
    outer loop
      vertex 26.0799 0 0
      vertex 31.8818 5.42436 0
      vertex 32.9183 3.77479 0
    endloop
  endfacet
  facet normal 0 0 -1
    outer loop
      vertex 31.8818 -5.42436 0
      vertex 25.3889 -0.951056 0
      vertex 26.0799 0 0
    endloop
  endfacet
  facet normal 0 0 -1
    outer loop
      vertex 25.3889 0.951056 0
      vertex 27.0158 8.48187 0
      vertex 28.8547 7.83843 0
    endloop
  endfacet
  facet normal 0 0 -1
    outer loop
      vertex 24.2709 0.587786 0
      vertex 23.1439 8.48187 0
      vertex 25.3889 0.951056 0
    endloop
  endfacet
  facet normal 0 0 1
    outer loop
      vertex 2.04693 -0.9804 10
      vertex 0.479869 0 10
      vertex 0.697997 -1.93593 10
    endloop
  endfacet
  facet normal 0 0 1
    outer loop
      vertex 7.24394 -8.48187 10
      vertex 6.76874 -6.78428 10
      vertex 5.40508 -7.83843 10
    endloop
  endfacet
  facet normal 0 0 1
    outer loop
      vertex 5.40508 -7.83843 10
      vertex 5.02777 -5.88218 10
      vertex 3.75551 -6.80193 10
    endloop
  endfacet
  facet normal 0 0 1
    outer loop
      vertex 9.17987 -8.7 10
      vertex 11.1158 -8.48187 10
      vertex 10.6448 -7.04941 10
    endloop
  endfacet
  facet normal 0 0 1
    outer loop
      vertex 9.17987 -8.7 10
      vertex 8.68852 -7.18322 10
      vertex 7.24394 -8.48187 10
    endloop
  endfacet
  facet normal 0 0 1
    outer loop
      vertex 3.59475 -4.54383 10
      vertex 2.37794 -5.42436 10
      vertex 3.75551 -6.80193 10
    endloop
  endfacet
  facet normal 0 0 1
    outer loop
      vertex 14.6042 -6.80193 10
      vertex 12.4923 -6.39277 10
      vertex 12.9547 -7.83843 10
    endloop
  endfacet
  facet normal 0 0 1
    outer loop
      vertex 12.4923 -6.39277 10
      vertex 10.6448 -7.04941 10
      vertex 12.9547 -7.83843 10
    endloop
  endfacet
  facet normal 0 0 1
    outer loop
      vertex 17.0183 -3.77479 10
      vertex 15.3317 -3.741 10
      vertex 15.9818 -5.42436 10
    endloop
  endfacet
  facet normal 0 0 1
    outer loop
      vertex 17.1299 -3.45594 10
      vertex 16.1129 -1.94254 10
      vertex 15.3317 -3.741 10
    endloop
  endfacet
  facet normal 0 0 1
    outer loop
      vertex 15.3317 -3.741 10
      vertex 14.0943 -5.26202 10
      vertex 15.9818 -5.42436 10
    endloop
  endfacet
  facet normal 0 0 1
    outer loop
      vertex 16.1129 -1.94254 10
      vertex 17.1299 -3.45594 10
      vertex 18.4759 -2.86849 10
    endloop
  endfacet
  facet normal 0 0 1
    outer loop
      vertex 15.9818 5.42436 10
      vertex 14.0943 5.26202 10
      vertex 15.3317 3.741 10
    endloop
  endfacet
  facet normal 0 0 1
    outer loop
      vertex 32.0129 -1.94254 10
      vertex 31.2317 -3.741 10
      vertex 32.9183 -3.77479 10
    endloop
  endfacet
  facet normal -0 0 1
    outer loop
      vertex 18.2779 -5.42436 10
      vertex 19.6555 -6.80193 10
      vertex 19.4947 -4.54383 10
    endloop
  endfacet
  facet normal -0 0 1
    outer loop
      vertex 19.6555 -6.80193 10
      vertex 21.3051 -7.83843 10
      vertex 20.9278 -5.88218 10
    endloop
  endfacet
  facet normal 0 0 1
    outer loop
      vertex 25.0799 -8.7 10
      vertex 27.0158 -8.48187 10
      vertex 26.5448 -7.04941 10
    endloop
  endfacet
  facet normal 0 0 1
    outer loop
      vertex 32.2799 0 10
      vertex 32.0129 -1.94254 10
      vertex 33.5617 -1.93593 10
    endloop
  endfacet
  facet normal -0 0 1
    outer loop
      vertex 32.2799 0 10
      vertex 33.5617 -1.93593 10
      vertex 33.7799 0 10
    endloop
  endfacet
  facet normal 0 0 1
    outer loop
      vertex 32.0129 1.94254 10
      vertex 32.2799 0 10
      vertex 33.5617 1.93593 10
    endloop
  endfacet
  facet normal 0 0 1
    outer loop
      vertex 31.8818 5.42436 10
      vertex 31.2317 3.741 10
      vertex 32.9183 3.77479 10
    endloop
  endfacet
  facet normal 0 0 1
    outer loop
      vertex 30.5042 6.80193 10
      vertex 29.9943 5.26202 10
      vertex 31.8818 5.42436 10
    endloop
  endfacet
  facet normal 0 0 1
    outer loop
      vertex 28.8547 7.83843 10
      vertex 28.3923 6.39277 10
      vertex 30.5042 6.80193 10
    endloop
  endfacet
  facet normal 0 0 1
    outer loop
      vertex 27.0158 8.48187 10
      vertex 26.5448 7.04941 10
      vertex 28.8547 7.83843 10
    endloop
  endfacet
  facet normal 0 0 1
    outer loop
      vertex 25.0799 8.7 10
      vertex 26.5448 7.04941 10
      vertex 27.0158 8.48187 10
    endloop
  endfacet
  facet normal -0 0 1
    outer loop
      vertex 23.1439 8.48187 10
      vertex 24.5885 7.18322 10
      vertex 25.0799 8.7 10
    endloop
  endfacet
  facet normal -0 0 1
    outer loop
      vertex 21.3051 7.83843 10
      vertex 22.6687 6.78428 10
      vertex 23.1439 8.48187 10
    endloop
  endfacet
  facet normal -0 0 1
    outer loop
      vertex 19.6555 6.80193 10
      vertex 20.9278 5.88218 10
      vertex 21.3051 7.83843 10
    endloop
  endfacet
  facet normal 0 -0 1
    outer loop
      vertex 2.04693 -0.9804 10
      vertex 2.04693 0.9804 10
      vertex 0.479869 0 10
    endloop
  endfacet
  facet normal 0 0 1
    outer loop
      vertex 10.6448 7.04941 10
      vertex 12.9547 7.83843 10
      vertex 11.1158 8.48187 10
    endloop
  endfacet
  facet normal -0 0 1
    outer loop
      vertex 18.2779 5.42436 10
      vertex 19.4947 4.54383 10
      vertex 19.6555 6.80193 10
    endloop
  endfacet
  facet normal 0 0 1
    outer loop
      vertex 17.2414 3.77479 10
      vertex 19.4947 4.54383 10
      vertex 18.2779 5.42436 10
    endloop
  endfacet
  facet normal -0 0 1
    outer loop
      vertex 17.1299 3.45594 10
      vertex 18.4759 2.86849 10
      vertex 17.2414 3.77479 10
    endloop
  endfacet
  facet normal -0 0 1
    outer loop
      vertex 10.6448 7.04941 10
      vertex 12.4923 6.39277 10
      vertex 12.9547 7.83843 10
    endloop
  endfacet
  facet normal -0 0 1
    outer loop
      vertex 16.1129 1.94254 10
      vertex 17.9469 0.9804 10
      vertex 18.4759 2.86849 10
    endloop
  endfacet
  facet normal 0 0 1
    outer loop
      vertex 14.0943 5.26202 10
      vertex 15.9818 5.42436 10
      vertex 14.6042 6.80193 10
    endloop
  endfacet
  facet normal 0 -0 1
    outer loop
      vertex 16.3799 0 10
      vertex 17.9469 0.9804 10
      vertex 16.1129 1.94254 10
    endloop
  endfacet
  facet normal -0 0 1
    outer loop
      vertex 8.68852 7.18322 10
      vertex 10.6448 7.04941 10
      vertex 9.17987 8.7 10
    endloop
  endfacet
  facet normal 0 0 1
    outer loop
      vertex 6.76874 6.78428 10
      vertex 8.68852 7.18322 10
      vertex 7.24394 8.48187 10
    endloop
  endfacet
  facet normal 0 0 1
    outer loop
      vertex 5.02777 5.88218 10
      vertex 6.76874 6.78428 10
      vertex 5.40508 7.83843 10
    endloop
  endfacet
  facet normal 0 0 1
    outer loop
      vertex 3.59475 4.54383 10
      vertex 5.02777 5.88218 10
      vertex 3.75551 6.80193 10
    endloop
  endfacet
  facet normal 0 -0 1
    outer loop
      vertex 3.59475 4.54383 10
      vertex 3.75551 6.80193 10
      vertex 2.37794 5.42436 10
    endloop
  endfacet
  facet normal 0 -0 1
    outer loop
      vertex 2.57595 2.86849 10
      vertex 3.59475 4.54383 10
      vertex 1.34144 3.77479 10
    endloop
  endfacet
  facet normal 0 -0 1
    outer loop
      vertex 2.04693 0.9804 10
      vertex 2.57595 2.86849 10
      vertex 0.697997 1.93593 10
    endloop
  endfacet
  facet normal 0 0 1
    outer loop
      vertex 2.04693 0.9804 10
      vertex 0.697997 1.93593 10
      vertex 0.479869 0 10
    endloop
  endfacet
  facet normal 0 -0 1
    outer loop
      vertex 1.34144 -3.77479 10
      vertex 2.57595 -2.86849 10
      vertex 0.697997 -1.93593 10
    endloop
  endfacet
  facet normal 0 0 1
    outer loop
      vertex 15.9818 5.42436 10
      vertex 15.3317 3.741 10
      vertex 17.0183 3.77479 10
    endloop
  endfacet
  facet normal 0 0 1
    outer loop
      vertex 2.57595 2.86849 10
      vertex 1.34144 3.77479 10
      vertex 0.697997 1.93593 10
    endloop
  endfacet
  facet normal 0 0 1
    outer loop
      vertex 3.59475 4.54383 10
      vertex 2.37794 5.42436 10
      vertex 1.34144 3.77479 10
    endloop
  endfacet
  facet normal 0 -0 1
    outer loop
      vertex 5.02777 5.88218 10
      vertex 5.40508 7.83843 10
      vertex 3.75551 6.80193 10
    endloop
  endfacet
  facet normal 0 -0 1
    outer loop
      vertex 6.76874 6.78428 10
      vertex 7.24394 8.48187 10
      vertex 5.40508 7.83843 10
    endloop
  endfacet
  facet normal 0 -0 1
    outer loop
      vertex 8.68852 7.18322 10
      vertex 9.17987 8.7 10
      vertex 7.24394 8.48187 10
    endloop
  endfacet
  facet normal 0 -0 1
    outer loop
      vertex 10.6448 7.04941 10
      vertex 11.1158 8.48187 10
      vertex 9.17987 8.7 10
    endloop
  endfacet
  facet normal 0 0 1
    outer loop
      vertex 12.4923 6.39277 10
      vertex 14.6042 6.80193 10
      vertex 12.9547 7.83843 10
    endloop
  endfacet
  facet normal 0 0 1
    outer loop
      vertex 14.6042 6.80193 10
      vertex 12.4923 6.39277 10
      vertex 14.0943 5.26202 10
    endloop
  endfacet
  facet normal -0 0 1
    outer loop
      vertex 15.3317 3.741 10
      vertex 17.1299 3.45594 10
      vertex 17.0183 3.77479 10
    endloop
  endfacet
  facet normal 0 -0 1
    outer loop
      vertex 16.1129 1.94254 10
      vertex 17.1299 3.45594 10
      vertex 15.3317 3.741 10
    endloop
  endfacet
  facet normal -0 0 1
    outer loop
      vertex 16.3799 0 10
      vertex 17.9469 -0.9804 10
      vertex 17.9469 0.9804 10
    endloop
  endfacet
  facet normal 0 0 1
    outer loop
      vertex 17.9469 -0.9804 10
      vertex 16.3799 0 10
      vertex 16.1129 -1.94254 10
    endloop
  endfacet
  facet normal 0 -0 1
    outer loop
      vertex 17.0183 -3.77479 10
      vertex 17.1299 -3.45594 10
      vertex 15.3317 -3.741 10
    endloop
  endfacet
  facet normal 0 0 1
    outer loop
      vertex 14.0943 -5.26202 10
      vertex 14.6042 -6.80193 10
      vertex 15.9818 -5.42436 10
    endloop
  endfacet
  facet normal 0 0 1
    outer loop
      vertex 14.6042 -6.80193 10
      vertex 14.0943 -5.26202 10
      vertex 12.4923 -6.39277 10
    endloop
  endfacet
  facet normal 0 0 1
    outer loop
      vertex 10.6448 -7.04941 10
      vertex 11.1158 -8.48187 10
      vertex 12.9547 -7.83843 10
    endloop
  endfacet
  facet normal 0 -0 1
    outer loop
      vertex 9.17987 -8.7 10
      vertex 10.6448 -7.04941 10
      vertex 8.68852 -7.18322 10
    endloop
  endfacet
  facet normal 0 -0 1
    outer loop
      vertex 7.24394 -8.48187 10
      vertex 8.68852 -7.18322 10
      vertex 6.76874 -6.78428 10
    endloop
  endfacet
  facet normal 0 0 1
    outer loop
      vertex 5.02777 -5.88218 10
      vertex 5.40508 -7.83843 10
      vertex 6.76874 -6.78428 10
    endloop
  endfacet
  facet normal 0 0 1
    outer loop
      vertex 3.59475 -4.54383 10
      vertex 3.75551 -6.80193 10
      vertex 5.02777 -5.88218 10
    endloop
  endfacet
  facet normal 0 0 1
    outer loop
      vertex 1.34144 -3.77479 10
      vertex 2.37794 -5.42436 10
      vertex 3.59475 -4.54383 10
    endloop
  endfacet
  facet normal -0 0 1
    outer loop
      vertex 0.697997 -1.93593 10
      vertex 2.57595 -2.86849 10
      vertex 2.04693 -0.9804 10
    endloop
  endfacet
  facet normal -0 0 1
    outer loop
      vertex 1.34144 -3.77479 10
      vertex 3.59475 -4.54383 10
      vertex 2.57595 -2.86849 10
    endloop
  endfacet
  facet normal -0 0 1
    outer loop
      vertex 17.2414 -3.77479 10
      vertex 19.4947 -4.54383 10
      vertex 18.4759 -2.86849 10
    endloop
  endfacet
  facet normal -0 0 1
    outer loop
      vertex 31.2317 3.741 10
      vertex 32.0129 1.94254 10
      vertex 32.9183 3.77479 10
    endloop
  endfacet
  facet normal 0 0 1
    outer loop
      vertex 17.1299 3.45594 10
      vertex 16.1129 1.94254 10
      vertex 18.4759 2.86849 10
    endloop
  endfacet
  facet normal 0 0 1
    outer loop
      vertex 22.6687 -6.78428 10
      vertex 20.9278 -5.88218 10
      vertex 21.3051 -7.83843 10
    endloop
  endfacet
  facet normal -0 0 1
    outer loop
      vertex 17.2414 3.77479 10
      vertex 18.4759 2.86849 10
      vertex 19.4947 4.54383 10
    endloop
  endfacet
  facet normal 0 0 1
    outer loop
      vertex 19.6555 6.80193 10
      vertex 19.4947 4.54383 10
      vertex 20.9278 5.88218 10
    endloop
  endfacet
  facet normal 0 0 1
    outer loop
      vertex 21.3051 7.83843 10
      vertex 20.9278 5.88218 10
      vertex 22.6687 6.78428 10
    endloop
  endfacet
  facet normal 0 0 1
    outer loop
      vertex 23.1439 8.48187 10
      vertex 22.6687 6.78428 10
      vertex 24.5885 7.18322 10
    endloop
  endfacet
  facet normal 0 0 1
    outer loop
      vertex 25.0799 8.7 10
      vertex 24.5885 7.18322 10
      vertex 26.5448 7.04941 10
    endloop
  endfacet
  facet normal 0 0 1
    outer loop
      vertex 28.8547 7.83843 10
      vertex 26.5448 7.04941 10
      vertex 28.3923 6.39277 10
    endloop
  endfacet
  facet normal 0 0 1
    outer loop
      vertex 30.5042 6.80193 10
      vertex 28.3923 6.39277 10
      vertex 29.9943 5.26202 10
    endloop
  endfacet
  facet normal 0 0 1
    outer loop
      vertex 31.8818 5.42436 10
      vertex 29.9943 5.26202 10
      vertex 31.2317 3.741 10
    endloop
  endfacet
  facet normal -0 0 1
    outer loop
      vertex 32.0129 1.94254 10
      vertex 33.5617 1.93593 10
      vertex 32.9183 3.77479 10
    endloop
  endfacet
  facet normal 0 0 1
    outer loop
      vertex 32.2799 0 10
      vertex 33.7799 0 10
      vertex 33.5617 1.93593 10
    endloop
  endfacet
  facet normal -0 0 1
    outer loop
      vertex 32.0129 -1.94254 10
      vertex 32.9183 -3.77479 10
      vertex 33.5617 -1.93593 10
    endloop
  endfacet
  facet normal 0 0 1
    outer loop
      vertex 31.2317 -3.741 10
      vertex 31.8818 -5.42436 10
      vertex 32.9183 -3.77479 10
    endloop
  endfacet
  facet normal 0 -0 1
    outer loop
      vertex 30.5042 -6.80193 10
      vertex 31.8818 -5.42436 10
      vertex 29.9943 -5.26202 10
    endloop
  endfacet
  facet normal -0 0 1
    outer loop
      vertex 29.9943 -5.26202 10
      vertex 31.8818 -5.42436 10
      vertex 31.2317 -3.741 10
    endloop
  endfacet
  facet normal 0 -0 1
    outer loop
      vertex 28.8547 -7.83843 10
      vertex 30.5042 -6.80193 10
      vertex 28.3923 -6.39277 10
    endloop
  endfacet
  facet normal -0 0 1
    outer loop
      vertex 28.3923 -6.39277 10
      vertex 30.5042 -6.80193 10
      vertex 29.9943 -5.26202 10
    endloop
  endfacet
  facet normal 0 -0 1
    outer loop
      vertex 27.0158 -8.48187 10
      vertex 28.8547 -7.83843 10
      vertex 26.5448 -7.04941 10
    endloop
  endfacet
  facet normal -0 0 1
    outer loop
      vertex 26.5448 -7.04941 10
      vertex 28.8547 -7.83843 10
      vertex 28.3923 -6.39277 10
    endloop
  endfacet
  facet normal -0 0 1
    outer loop
      vertex 23.1439 -8.48187 10
      vertex 25.0799 -8.7 10
      vertex 24.5885 -7.18322 10
    endloop
  endfacet
  facet normal -0 0 1
    outer loop
      vertex 24.5885 -7.18322 10
      vertex 25.0799 -8.7 10
      vertex 26.5448 -7.04941 10
    endloop
  endfacet
  facet normal -0 0 1
    outer loop
      vertex 21.3051 -7.83843 10
      vertex 23.1439 -8.48187 10
      vertex 22.6687 -6.78428 10
    endloop
  endfacet
  facet normal 0 0 1
    outer loop
      vertex 22.6687 -6.78428 10
      vertex 23.1439 -8.48187 10
      vertex 24.5885 -7.18322 10
    endloop
  endfacet
  facet normal 0 0 1
    outer loop
      vertex 20.9278 -5.88218 10
      vertex 19.4947 -4.54383 10
      vertex 19.6555 -6.80193 10
    endloop
  endfacet
  facet normal 0 0 1
    outer loop
      vertex 19.4947 -4.54383 10
      vertex 17.2414 -3.77479 10
      vertex 18.2779 -5.42436 10
    endloop
  endfacet
  facet normal 0 0 1
    outer loop
      vertex 18.4759 -2.86849 10
      vertex 17.1299 -3.45594 10
      vertex 17.2414 -3.77479 10
    endloop
  endfacet
  facet normal 0 0 1
    outer loop
      vertex 17.9469 -0.9804 10
      vertex 16.1129 -1.94254 10
      vertex 18.4759 -2.86849 10
    endloop
  endfacet
  facet normal -0.990686 -0.136167 0
    outer loop
      vertex 16.3799 0 1.5
      vertex 16.3799 0 10
      vertex 16.1129 1.94254 10
    endloop
  endfacet
  facet normal -0.990686 -0.136167 0
    outer loop
      vertex 16.1129 1.94254 1.5
      vertex 16.3799 0 1.5
      vertex 16.1129 1.94254 10
    endloop
  endfacet
  facet normal -0.917211 -0.398401 0
    outer loop
      vertex 16.1129 1.94254 1.5
      vertex 16.1129 1.94254 10
      vertex 15.3317 3.741 10
    endloop
  endfacet
  facet normal -0.917211 -0.398401 0
    outer loop
      vertex 15.3317 3.741 1.5
      vertex 16.1129 1.94254 1.5
      vertex 15.3317 3.741 10
    endloop
  endfacet
  facet normal -0.775711 -0.631088 0
    outer loop
      vertex 15.3317 3.741 1.5
      vertex 15.3317 3.741 10
      vertex 14.0943 5.26202 10
    endloop
  endfacet
  facet normal -0.775711 -0.631088 0
    outer loop
      vertex 14.0943 5.26202 1.5
      vertex 15.3317 3.741 1.5
      vertex 14.0943 5.26202 10
    endloop
  endfacet
  facet normal -0.57668 -0.81697 0
    outer loop
      vertex 14.0943 5.26202 1.5
      vertex 14.0943 5.26202 10
      vertex 12.4923 6.39277 10
    endloop
  endfacet
  facet normal -0.57668 -0.81697 0
    outer loop
      vertex 12.4923 6.39277 1.5
      vertex 14.0943 5.26202 1.5
      vertex 12.4923 6.39277 10
    endloop
  endfacet
  facet normal -0.334879 -0.942261 0
    outer loop
      vertex 12.4923 6.39277 1.5
      vertex 12.4923 6.39277 10
      vertex 10.6448 7.04941 10
    endloop
  endfacet
  facet normal -0.334879 -0.942261 0
    outer loop
      vertex 10.6448 7.04941 1.5
      vertex 12.4923 6.39277 1.5
      vertex 10.6448 7.04941 10
    endloop
  endfacet
  facet normal -0.0682426 -0.997669 0
    outer loop
      vertex 10.6448 7.04941 1.5
      vertex 10.6448 7.04941 10
      vertex 8.68852 7.18322 10
    endloop
  endfacet
  facet normal -0.0682426 -0.997669 0
    outer loop
      vertex 8.68852 7.18322 1.5
      vertex 10.6448 7.04941 1.5
      vertex 8.68852 7.18322 10
    endloop
  endfacet
  facet normal 0.203456 -0.979084 0
    outer loop
      vertex 8.68852 7.18322 1.5
      vertex 8.68852 7.18322 10
      vertex 6.76874 6.78428 10
    endloop
  endfacet
  facet normal 0.203456 -0.979084 0
    outer loop
      vertex 6.76874 6.78428 1.5
      vertex 8.68852 7.18322 1.5
      vertex 6.76874 6.78428 10
    endloop
  endfacet
  facet normal 0.460065 -0.887885 0
    outer loop
      vertex 6.76874 6.78428 1.5
      vertex 6.76874 6.78428 10
      vertex 5.02777 5.88218 10
    endloop
  endfacet
  facet normal 0.460065 -0.887885 0
    outer loop
      vertex 5.02777 5.88218 1.5
      vertex 6.76874 6.78428 1.5
      vertex 5.02777 5.88218 10
    endloop
  endfacet
  facet normal 0.682553 -0.730836 0
    outer loop
      vertex 5.02777 5.88218 1.5
      vertex 5.02777 5.88218 10
      vertex 3.59475 4.54383 10
    endloop
  endfacet
  facet normal 0.682553 -0.730836 0
    outer loop
      vertex 3.59475 4.54383 1.5
      vertex 5.02777 5.88218 1.5
      vertex 3.59475 4.54383 10
    endloop
  endfacet
  facet normal 0.854419 -0.519584 0
    outer loop
      vertex 3.59475 4.54383 1.5
      vertex 3.59475 4.54383 10
      vertex 2.57595 2.86849 10
    endloop
  endfacet
  facet normal 0.854419 -0.519584 0
    outer loop
      vertex 2.57595 2.86849 1.5
      vertex 3.59475 4.54383 1.5
      vertex 2.57595 2.86849 10
    endloop
  endfacet
  facet normal 0.962917 -0.269797 0
    outer loop
      vertex 2.57595 2.86849 1.5
      vertex 2.57595 2.86849 10
      vertex 2.04693 0.9804 10
    endloop
  endfacet
  facet normal 0.962917 -0.269797 0
    outer loop
      vertex 2.04693 0.9804 1.5
      vertex 2.57595 2.86849 1.5
      vertex 2.04693 0.9804 10
    endloop
  endfacet
  facet normal 1 0 -0
    outer loop
      vertex 2.04693 0.9804 1.5
      vertex 2.04693 0.9804 10
      vertex 2.04693 -0.9804 10
    endloop
  endfacet
  facet normal 1 0 0
    outer loop
      vertex 2.04693 -0.9804 1.5
      vertex 2.04693 0.9804 1.5
      vertex 2.04693 -0.9804 10
    endloop
  endfacet
  facet normal 0.962917 0.269797 0
    outer loop
      vertex 2.04693 -0.9804 10
      vertex 2.57595 -2.86849 10
      vertex 2.57595 -2.86849 1.5
    endloop
  endfacet
  facet normal 0.962917 0.269797 -0
    outer loop
      vertex 2.04693 -0.9804 1.5
      vertex 2.04693 -0.9804 10
      vertex 2.57595 -2.86849 1.5
    endloop
  endfacet
  facet normal 0.854419 0.519584 0
    outer loop
      vertex 2.57595 -2.86849 10
      vertex 3.59475 -4.54383 10
      vertex 3.59475 -4.54383 1.5
    endloop
  endfacet
  facet normal 0.854419 0.519584 -0
    outer loop
      vertex 2.57595 -2.86849 1.5
      vertex 2.57595 -2.86849 10
      vertex 3.59475 -4.54383 1.5
    endloop
  endfacet
  facet normal 0.682553 0.730836 0
    outer loop
      vertex 3.59475 -4.54383 10
      vertex 5.02777 -5.88218 10
      vertex 5.02777 -5.88218 1.5
    endloop
  endfacet
  facet normal 0.682553 0.730836 -0
    outer loop
      vertex 3.59475 -4.54383 1.5
      vertex 3.59475 -4.54383 10
      vertex 5.02777 -5.88218 1.5
    endloop
  endfacet
  facet normal 0.460065 0.887885 0
    outer loop
      vertex 5.02777 -5.88218 10
      vertex 6.76874 -6.78428 10
      vertex 6.76874 -6.78428 1.5
    endloop
  endfacet
  facet normal 0.460065 0.887885 -0
    outer loop
      vertex 5.02777 -5.88218 1.5
      vertex 5.02777 -5.88218 10
      vertex 6.76874 -6.78428 1.5
    endloop
  endfacet
  facet normal 0.203456 0.979084 0
    outer loop
      vertex 6.76874 -6.78428 10
      vertex 8.68852 -7.18322 10
      vertex 8.68852 -7.18322 1.5
    endloop
  endfacet
  facet normal 0.203456 0.979084 -0
    outer loop
      vertex 6.76874 -6.78428 1.5
      vertex 6.76874 -6.78428 10
      vertex 8.68852 -7.18322 1.5
    endloop
  endfacet
  facet normal -0.0682426 0.997669 0
    outer loop
      vertex 8.68852 -7.18322 10
      vertex 10.6448 -7.04941 10
      vertex 10.6448 -7.04941 1.5
    endloop
  endfacet
  facet normal -0.0682426 0.997669 0
    outer loop
      vertex 8.68852 -7.18322 1.5
      vertex 8.68852 -7.18322 10
      vertex 10.6448 -7.04941 1.5
    endloop
  endfacet
  facet normal -0.334879 0.942261 0
    outer loop
      vertex 10.6448 -7.04941 10
      vertex 12.4923 -6.39277 10
      vertex 12.4923 -6.39277 1.5
    endloop
  endfacet
  facet normal -0.334879 0.942261 0
    outer loop
      vertex 10.6448 -7.04941 1.5
      vertex 10.6448 -7.04941 10
      vertex 12.4923 -6.39277 1.5
    endloop
  endfacet
  facet normal -0.57668 0.81697 0
    outer loop
      vertex 12.4923 -6.39277 10
      vertex 14.0943 -5.26202 10
      vertex 14.0943 -5.26202 1.5
    endloop
  endfacet
  facet normal -0.57668 0.81697 0
    outer loop
      vertex 12.4923 -6.39277 1.5
      vertex 12.4923 -6.39277 10
      vertex 14.0943 -5.26202 1.5
    endloop
  endfacet
  facet normal -0.775711 0.631088 0
    outer loop
      vertex 14.0943 -5.26202 10
      vertex 15.3317 -3.741 10
      vertex 15.3317 -3.741 1.5
    endloop
  endfacet
  facet normal -0.775711 0.631088 0
    outer loop
      vertex 14.0943 -5.26202 1.5
      vertex 14.0943 -5.26202 10
      vertex 15.3317 -3.741 1.5
    endloop
  endfacet
  facet normal -0.917211 0.398401 0
    outer loop
      vertex 15.3317 -3.741 10
      vertex 16.1129 -1.94254 10
      vertex 16.1129 -1.94254 1.5
    endloop
  endfacet
  facet normal -0.917211 0.398401 0
    outer loop
      vertex 15.3317 -3.741 1.5
      vertex 15.3317 -3.741 10
      vertex 16.1129 -1.94254 1.5
    endloop
  endfacet
  facet normal -0.990686 0.136167 0
    outer loop
      vertex 16.1129 -1.94254 10
      vertex 16.3799 0 10
      vertex 16.3799 0 1.5
    endloop
  endfacet
  facet normal -0.990686 0.136167 0
    outer loop
      vertex 16.1129 -1.94254 1.5
      vertex 16.1129 -1.94254 10
      vertex 16.3799 0 1.5
    endloop
  endfacet
  facet normal 0 0 1
    outer loop
      vertex 6.76874 -6.78428 1.5
      vertex 9.48889 -0.951056 1.5
      vertex 8.37085 -0.587786 1.5
    endloop
  endfacet
  facet normal 0 0 1
    outer loop
      vertex 9.48889 -0.951056 1.5
      vertex 8.68852 -7.18322 1.5
      vertex 10.6448 -7.04941 1.5
    endloop
  endfacet
  facet normal 0 0 1
    outer loop
      vertex 12.4923 -6.39277 1.5
      vertex 9.48889 -0.951056 1.5
      vertex 10.6448 -7.04941 1.5
    endloop
  endfacet
  facet normal 0 0 1
    outer loop
      vertex 16.1129 1.94254 1.5
      vertex 10.1799 0 1.5
      vertex 16.3799 0 1.5
    endloop
  endfacet
  facet normal 0 0 1
    outer loop
      vertex 10.1799 0 1.5
      vertex 9.48889 -0.951056 1.5
      vertex 15.3317 -3.741 1.5
    endloop
  endfacet
  facet normal 0 0 1
    outer loop
      vertex 10.1799 0 1.5
      vertex 15.3317 -3.741 1.5
      vertex 16.1129 -1.94254 1.5
    endloop
  endfacet
  facet normal -0 0 1
    outer loop
      vertex 10.1799 0 1.5
      vertex 16.1129 -1.94254 1.5
      vertex 16.3799 0 1.5
    endloop
  endfacet
  facet normal 0 -0 1
    outer loop
      vertex 8.37085 -0.587786 1.5
      vertex 8.37085 0.587786 1.5
      vertex 2.04693 0.9804 1.5
    endloop
  endfacet
  facet normal 0 0 1
    outer loop
      vertex 15.3317 3.741 1.5
      vertex 10.1799 0 1.5
      vertex 16.1129 1.94254 1.5
    endloop
  endfacet
  facet normal 0 0 1
    outer loop
      vertex 12.4923 6.39277 1.5
      vertex 9.48889 0.951056 1.5
      vertex 14.0943 5.26202 1.5
    endloop
  endfacet
  facet normal 0 0 1
    outer loop
      vertex 10.6448 7.04941 1.5
      vertex 8.68852 7.18322 1.5
      vertex 9.48889 0.951056 1.5
    endloop
  endfacet
  facet normal 0 0 1
    outer loop
      vertex 10.6448 7.04941 1.5
      vertex 9.48889 0.951056 1.5
      vertex 12.4923 6.39277 1.5
    endloop
  endfacet
  facet normal -0 0 1
    outer loop
      vertex 2.57595 2.86849 1.5
      vertex 8.37085 0.587786 1.5
      vertex 3.59475 4.54383 1.5
    endloop
  endfacet
  facet normal -0 0 1
    outer loop
      vertex 6.76874 6.78428 1.5
      vertex 9.48889 0.951056 1.5
      vertex 8.68852 7.18322 1.5
    endloop
  endfacet
  facet normal 0 0 1
    outer loop
      vertex 9.48889 0.951056 1.5
      vertex 6.76874 6.78428 1.5
      vertex 8.37085 0.587786 1.5
    endloop
  endfacet
  facet normal 0 0 1
    outer loop
      vertex 8.37085 0.587786 1.5
      vertex 5.02777 5.88218 1.5
      vertex 3.59475 4.54383 1.5
    endloop
  endfacet
  facet normal 0 0 1
    outer loop
      vertex 6.76874 6.78428 1.5
      vertex 5.02777 5.88218 1.5
      vertex 8.37085 0.587786 1.5
    endloop
  endfacet
  facet normal 0 0 1
    outer loop
      vertex 8.37085 0.587786 1.5
      vertex 2.57595 2.86849 1.5
      vertex 2.04693 0.9804 1.5
    endloop
  endfacet
  facet normal 0 -0 1
    outer loop
      vertex 2.57595 -2.86849 1.5
      vertex 8.37085 -0.587786 1.5
      vertex 2.04693 -0.9804 1.5
    endloop
  endfacet
  facet normal -0 0 1
    outer loop
      vertex 5.02777 -5.88218 1.5
      vertex 6.76874 -6.78428 1.5
      vertex 8.37085 -0.587786 1.5
    endloop
  endfacet
  facet normal 0 0 1
    outer loop
      vertex 8.37085 -0.587786 1.5
      vertex 2.57595 -2.86849 1.5
      vertex 3.59475 -4.54383 1.5
    endloop
  endfacet
  facet normal 0 0 1
    outer loop
      vertex 2.04693 -0.9804 1.5
      vertex 8.37085 -0.587786 1.5
      vertex 2.04693 0.9804 1.5
    endloop
  endfacet
  facet normal 0 0 1
    outer loop
      vertex 9.48889 -0.951056 1.5
      vertex 12.4923 -6.39277 1.5
      vertex 14.0943 -5.26202 1.5
    endloop
  endfacet
  facet normal 0 0 1
    outer loop
      vertex 15.3317 3.741 1.5
      vertex 9.48889 0.951056 1.5
      vertex 10.1799 0 1.5
    endloop
  endfacet
  facet normal 0 0 1
    outer loop
      vertex 15.3317 3.741 1.5
      vertex 14.0943 5.26202 1.5
      vertex 9.48889 0.951056 1.5
    endloop
  endfacet
  facet normal 0 0 1
    outer loop
      vertex 9.48889 -0.951056 1.5
      vertex 14.0943 -5.26202 1.5
      vertex 15.3317 -3.741 1.5
    endloop
  endfacet
  facet normal 0 -0 1
    outer loop
      vertex 8.68852 -7.18322 1.5
      vertex 9.48889 -0.951056 1.5
      vertex 6.76874 -6.78428 1.5
    endloop
  endfacet
  facet normal 0 -0 1
    outer loop
      vertex 5.02777 -5.88218 1.5
      vertex 8.37085 -0.587786 1.5
      vertex 3.59475 -4.54383 1.5
    endloop
  endfacet
  facet normal -0.809017 -0.587785 0
    outer loop
      vertex 10.1799 0 0
      vertex 10.1799 0 1.5
      vertex 9.48889 0.951056 1.5
    endloop
  endfacet
  facet normal -0.809017 -0.587785 0
    outer loop
      vertex 9.48889 0.951056 0
      vertex 10.1799 0 0
      vertex 9.48889 0.951056 1.5
    endloop
  endfacet
  facet normal 0.309017 -0.951057 0
    outer loop
      vertex 9.48889 0.951056 0
      vertex 9.48889 0.951056 1.5
      vertex 8.37085 0.587786 1.5
    endloop
  endfacet
  facet normal 0.309017 -0.951057 0
    outer loop
      vertex 8.37085 0.587786 0
      vertex 9.48889 0.951056 0
      vertex 8.37085 0.587786 1.5
    endloop
  endfacet
  facet normal 1 0 -0
    outer loop
      vertex 8.37085 0.587786 0
      vertex 8.37085 0.587786 1.5
      vertex 8.37085 -0.587786 1.5
    endloop
  endfacet
  facet normal 1 0 0
    outer loop
      vertex 8.37085 -0.587786 0
      vertex 8.37085 0.587786 0
      vertex 8.37085 -0.587786 1.5
    endloop
  endfacet
  facet normal 0.309017 0.951057 0
    outer loop
      vertex 8.37085 -0.587786 1.5
      vertex 9.48889 -0.951056 1.5
      vertex 9.48889 -0.951056 0
    endloop
  endfacet
  facet normal 0.309017 0.951057 -0
    outer loop
      vertex 8.37085 -0.587786 0
      vertex 8.37085 -0.587786 1.5
      vertex 9.48889 -0.951056 0
    endloop
  endfacet
  facet normal -0.809017 0.587785 0
    outer loop
      vertex 9.48889 -0.951056 1.5
      vertex 10.1799 0 1.5
      vertex 10.1799 0 0
    endloop
  endfacet
  facet normal -0.809017 0.587785 0
    outer loop
      vertex 9.48889 -0.951056 0
      vertex 9.48889 -0.951056 1.5
      vertex 10.1799 0 0
    endloop
  endfacet
  facet normal 0.993712 0.111965 0
    outer loop
      vertex 33.7799 0 0
      vertex 33.5617 1.93593 0
      vertex 33.5617 1.93593 10
    endloop
  endfacet
  facet normal 0.993712 0.111965 0
    outer loop
      vertex 33.7799 0 10
      vertex 33.7799 0 0
      vertex 33.5617 1.93593 10
    endloop
  endfacet
  facet normal 0.943883 0.330279 0
    outer loop
      vertex 33.5617 1.93593 0
      vertex 32.9183 3.77479 0
      vertex 32.9183 3.77479 10
    endloop
  endfacet
  facet normal 0.943883 0.330279 0
    outer loop
      vertex 33.5617 1.93593 10
      vertex 33.5617 1.93593 0
      vertex 32.9183 3.77479 10
    endloop
  endfacet
  facet normal 0.846724 0.532032 0
    outer loop
      vertex 32.9183 3.77479 0
      vertex 31.8818 5.42436 0
      vertex 31.8818 5.42436 10
    endloop
  endfacet
  facet normal 0.846724 0.532032 0
    outer loop
      vertex 32.9183 3.77479 10
      vertex 32.9183 3.77479 0
      vertex 31.8818 5.42436 10
    endloop
  endfacet
  facet normal 0.707107 0.707107 0
    outer loop
      vertex 31.8818 5.42436 0
      vertex 30.5042 6.80193 0
      vertex 30.5042 6.80193 10
    endloop
  endfacet
  facet normal 0.707107 0.707107 0
    outer loop
      vertex 31.8818 5.42436 10
      vertex 31.8818 5.42436 0
      vertex 30.5042 6.80193 10
    endloop
  endfacet
  facet normal 0.532032 0.846724 0
    outer loop
      vertex 30.5042 6.80193 0
      vertex 28.8547 7.83843 0
      vertex 28.8547 7.83843 10
    endloop
  endfacet
  facet normal 0.532032 0.846724 0
    outer loop
      vertex 30.5042 6.80193 10
      vertex 30.5042 6.80193 0
      vertex 28.8547 7.83843 10
    endloop
  endfacet
  facet normal 0.330279 0.943883 0
    outer loop
      vertex 28.8547 7.83843 0
      vertex 27.0158 8.48187 0
      vertex 27.0158 8.48187 10
    endloop
  endfacet
  facet normal 0.330279 0.943883 0
    outer loop
      vertex 28.8547 7.83843 10
      vertex 28.8547 7.83843 0
      vertex 27.0158 8.48187 10
    endloop
  endfacet
  facet normal 0.111965 0.993712 0
    outer loop
      vertex 27.0158 8.48187 0
      vertex 25.0799 8.7 0
      vertex 25.0799 8.7 10
    endloop
  endfacet
  facet normal 0.111965 0.993712 0
    outer loop
      vertex 27.0158 8.48187 10
      vertex 27.0158 8.48187 0
      vertex 25.0799 8.7 10
    endloop
  endfacet
  facet normal -0.111965 0.993712 0
    outer loop
      vertex 25.0799 8.7 0
      vertex 23.1439 8.48187 0
      vertex 23.1439 8.48187 10
    endloop
  endfacet
  facet normal -0.111965 0.993712 0
    outer loop
      vertex 25.0799 8.7 10
      vertex 25.0799 8.7 0
      vertex 23.1439 8.48187 10
    endloop
  endfacet
  facet normal -0.330279 0.943883 0
    outer loop
      vertex 23.1439 8.48187 0
      vertex 21.3051 7.83843 0
      vertex 21.3051 7.83843 10
    endloop
  endfacet
  facet normal -0.330279 0.943883 0
    outer loop
      vertex 23.1439 8.48187 10
      vertex 23.1439 8.48187 0
      vertex 21.3051 7.83843 10
    endloop
  endfacet
  facet normal -0.532032 0.846724 0
    outer loop
      vertex 21.3051 7.83843 0
      vertex 19.6555 6.80193 0
      vertex 19.6555 6.80193 10
    endloop
  endfacet
  facet normal -0.532032 0.846724 0
    outer loop
      vertex 21.3051 7.83843 10
      vertex 21.3051 7.83843 0
      vertex 19.6555 6.80193 10
    endloop
  endfacet
  facet normal -0.707107 0.707107 0
    outer loop
      vertex 19.6555 6.80193 0
      vertex 18.2779 5.42436 0
      vertex 18.2779 5.42436 10
    endloop
  endfacet
  facet normal -0.707107 0.707107 0
    outer loop
      vertex 19.6555 6.80193 10
      vertex 19.6555 6.80193 0
      vertex 18.2779 5.42436 10
    endloop
  endfacet
  facet normal -0.846724 0.532032 0
    outer loop
      vertex 18.2779 5.42436 0
      vertex 17.2414 3.77479 0
      vertex 17.2414 3.77479 10
    endloop
  endfacet
  facet normal -0.846724 0.532032 0
    outer loop
      vertex 18.2779 5.42436 10
      vertex 18.2779 5.42436 0
      vertex 17.2414 3.77479 10
    endloop
  endfacet
  facet normal -0.943883 0.330279 0
    outer loop
      vertex 17.2414 3.77479 0
      vertex 17.1299 3.45594 0
      vertex 17.1299 3.45594 10
    endloop
  endfacet
  facet normal -0.943883 0.330279 0
    outer loop
      vertex 17.2414 3.77479 10
      vertex 17.2414 3.77479 0
      vertex 17.1299 3.45594 10
    endloop
  endfacet
  facet normal -0.943883 -0.330279 -0
    outer loop
      vertex 17.1299 -3.45594 10
      vertex 17.1299 -3.45594 0
      vertex 17.2414 -3.77479 0
    endloop
  endfacet
  facet normal -0.943883 -0.330279 -0
    outer loop
      vertex 17.2414 -3.77479 10
      vertex 17.1299 -3.45594 10
      vertex 17.2414 -3.77479 0
    endloop
  endfacet
  facet normal -0.846724 -0.532032 -0
    outer loop
      vertex 17.2414 -3.77479 10
      vertex 17.2414 -3.77479 0
      vertex 18.2779 -5.42436 0
    endloop
  endfacet
  facet normal -0.846724 -0.532032 -0
    outer loop
      vertex 18.2779 -5.42436 10
      vertex 17.2414 -3.77479 10
      vertex 18.2779 -5.42436 0
    endloop
  endfacet
  facet normal -0.707107 -0.707107 -0
    outer loop
      vertex 18.2779 -5.42436 10
      vertex 18.2779 -5.42436 0
      vertex 19.6555 -6.80193 0
    endloop
  endfacet
  facet normal -0.707107 -0.707107 -0
    outer loop
      vertex 19.6555 -6.80193 10
      vertex 18.2779 -5.42436 10
      vertex 19.6555 -6.80193 0
    endloop
  endfacet
  facet normal -0.532032 -0.846724 -0
    outer loop
      vertex 19.6555 -6.80193 10
      vertex 19.6555 -6.80193 0
      vertex 21.3051 -7.83843 0
    endloop
  endfacet
  facet normal -0.532032 -0.846724 -0
    outer loop
      vertex 21.3051 -7.83843 10
      vertex 19.6555 -6.80193 10
      vertex 21.3051 -7.83843 0
    endloop
  endfacet
  facet normal -0.330279 -0.943883 -0
    outer loop
      vertex 21.3051 -7.83843 10
      vertex 21.3051 -7.83843 0
      vertex 23.1439 -8.48187 0
    endloop
  endfacet
  facet normal -0.330279 -0.943883 -0
    outer loop
      vertex 23.1439 -8.48187 10
      vertex 21.3051 -7.83843 10
      vertex 23.1439 -8.48187 0
    endloop
  endfacet
  facet normal -0.111965 -0.993712 -0
    outer loop
      vertex 23.1439 -8.48187 10
      vertex 23.1439 -8.48187 0
      vertex 25.0799 -8.7 0
    endloop
  endfacet
  facet normal -0.111965 -0.993712 -0
    outer loop
      vertex 25.0799 -8.7 10
      vertex 23.1439 -8.48187 10
      vertex 25.0799 -8.7 0
    endloop
  endfacet
  facet normal 0.111965 -0.993712 0
    outer loop
      vertex 25.0799 -8.7 10
      vertex 25.0799 -8.7 0
      vertex 27.0158 -8.48187 0
    endloop
  endfacet
  facet normal 0.111965 -0.993712 0
    outer loop
      vertex 27.0158 -8.48187 10
      vertex 25.0799 -8.7 10
      vertex 27.0158 -8.48187 0
    endloop
  endfacet
  facet normal 0.330279 -0.943883 0
    outer loop
      vertex 27.0158 -8.48187 10
      vertex 27.0158 -8.48187 0
      vertex 28.8547 -7.83843 0
    endloop
  endfacet
  facet normal 0.330279 -0.943883 0
    outer loop
      vertex 28.8547 -7.83843 10
      vertex 27.0158 -8.48187 10
      vertex 28.8547 -7.83843 0
    endloop
  endfacet
  facet normal 0.532032 -0.846724 0
    outer loop
      vertex 28.8547 -7.83843 10
      vertex 28.8547 -7.83843 0
      vertex 30.5042 -6.80193 0
    endloop
  endfacet
  facet normal 0.532032 -0.846724 0
    outer loop
      vertex 30.5042 -6.80193 10
      vertex 28.8547 -7.83843 10
      vertex 30.5042 -6.80193 0
    endloop
  endfacet
  facet normal 0.707107 -0.707107 0
    outer loop
      vertex 30.5042 -6.80193 10
      vertex 30.5042 -6.80193 0
      vertex 31.8818 -5.42436 0
    endloop
  endfacet
  facet normal 0.707107 -0.707107 0
    outer loop
      vertex 31.8818 -5.42436 10
      vertex 30.5042 -6.80193 10
      vertex 31.8818 -5.42436 0
    endloop
  endfacet
  facet normal 0.846724 -0.532032 0
    outer loop
      vertex 31.8818 -5.42436 10
      vertex 31.8818 -5.42436 0
      vertex 32.9183 -3.77479 0
    endloop
  endfacet
  facet normal 0.846724 -0.532032 0
    outer loop
      vertex 32.9183 -3.77479 10
      vertex 31.8818 -5.42436 10
      vertex 32.9183 -3.77479 0
    endloop
  endfacet
  facet normal 0.943883 -0.330279 0
    outer loop
      vertex 32.9183 -3.77479 10
      vertex 32.9183 -3.77479 0
      vertex 33.5617 -1.93593 0
    endloop
  endfacet
  facet normal 0.943883 -0.330279 0
    outer loop
      vertex 33.5617 -1.93593 10
      vertex 32.9183 -3.77479 10
      vertex 33.5617 -1.93593 0
    endloop
  endfacet
  facet normal 0.993712 -0.111965 0
    outer loop
      vertex 33.5617 -1.93593 10
      vertex 33.5617 -1.93593 0
      vertex 33.7799 0 0
    endloop
  endfacet
  facet normal 0.993712 -0.111965 0
    outer loop
      vertex 33.7799 0 10
      vertex 33.5617 -1.93593 10
      vertex 33.7799 0 0
    endloop
  endfacet
  facet normal -0.990686 -0.136167 0
    outer loop
      vertex 32.2799 0 1.5
      vertex 32.2799 0 10
      vertex 32.0129 1.94254 10
    endloop
  endfacet
  facet normal -0.990686 -0.136167 0
    outer loop
      vertex 32.0129 1.94254 1.5
      vertex 32.2799 0 1.5
      vertex 32.0129 1.94254 10
    endloop
  endfacet
  facet normal -0.917211 -0.398401 0
    outer loop
      vertex 32.0129 1.94254 1.5
      vertex 32.0129 1.94254 10
      vertex 31.2317 3.741 10
    endloop
  endfacet
  facet normal -0.917211 -0.398401 0
    outer loop
      vertex 31.2317 3.741 1.5
      vertex 32.0129 1.94254 1.5
      vertex 31.2317 3.741 10
    endloop
  endfacet
  facet normal -0.775711 -0.631088 0
    outer loop
      vertex 31.2317 3.741 1.5
      vertex 31.2317 3.741 10
      vertex 29.9943 5.26202 10
    endloop
  endfacet
  facet normal -0.775711 -0.631088 0
    outer loop
      vertex 29.9943 5.26202 1.5
      vertex 31.2317 3.741 1.5
      vertex 29.9943 5.26202 10
    endloop
  endfacet
  facet normal -0.57668 -0.81697 0
    outer loop
      vertex 29.9943 5.26202 1.5
      vertex 29.9943 5.26202 10
      vertex 28.3923 6.39277 10
    endloop
  endfacet
  facet normal -0.57668 -0.81697 0
    outer loop
      vertex 28.3923 6.39277 1.5
      vertex 29.9943 5.26202 1.5
      vertex 28.3923 6.39277 10
    endloop
  endfacet
  facet normal -0.334879 -0.942261 0
    outer loop
      vertex 28.3923 6.39277 1.5
      vertex 28.3923 6.39277 10
      vertex 26.5448 7.04941 10
    endloop
  endfacet
  facet normal -0.334879 -0.942261 0
    outer loop
      vertex 26.5448 7.04941 1.5
      vertex 28.3923 6.39277 1.5
      vertex 26.5448 7.04941 10
    endloop
  endfacet
  facet normal -0.0682426 -0.997669 0
    outer loop
      vertex 26.5448 7.04941 1.5
      vertex 26.5448 7.04941 10
      vertex 24.5885 7.18322 10
    endloop
  endfacet
  facet normal -0.0682426 -0.997669 0
    outer loop
      vertex 24.5885 7.18322 1.5
      vertex 26.5448 7.04941 1.5
      vertex 24.5885 7.18322 10
    endloop
  endfacet
  facet normal 0.203456 -0.979084 0
    outer loop
      vertex 24.5885 7.18322 1.5
      vertex 24.5885 7.18322 10
      vertex 22.6687 6.78428 10
    endloop
  endfacet
  facet normal 0.203456 -0.979084 0
    outer loop
      vertex 22.6687 6.78428 1.5
      vertex 24.5885 7.18322 1.5
      vertex 22.6687 6.78428 10
    endloop
  endfacet
  facet normal 0.460065 -0.887885 0
    outer loop
      vertex 22.6687 6.78428 1.5
      vertex 22.6687 6.78428 10
      vertex 20.9278 5.88218 10
    endloop
  endfacet
  facet normal 0.460065 -0.887885 0
    outer loop
      vertex 20.9278 5.88218 1.5
      vertex 22.6687 6.78428 1.5
      vertex 20.9278 5.88218 10
    endloop
  endfacet
  facet normal 0.682553 -0.730836 0
    outer loop
      vertex 20.9278 5.88218 1.5
      vertex 20.9278 5.88218 10
      vertex 19.4947 4.54383 10
    endloop
  endfacet
  facet normal 0.682553 -0.730836 0
    outer loop
      vertex 19.4947 4.54383 1.5
      vertex 20.9278 5.88218 1.5
      vertex 19.4947 4.54383 10
    endloop
  endfacet
  facet normal 0.854419 -0.519584 0
    outer loop
      vertex 19.4947 4.54383 1.5
      vertex 19.4947 4.54383 10
      vertex 18.4759 2.86849 10
    endloop
  endfacet
  facet normal 0.854419 -0.519584 0
    outer loop
      vertex 18.4759 2.86849 1.5
      vertex 19.4947 4.54383 1.5
      vertex 18.4759 2.86849 10
    endloop
  endfacet
  facet normal 0.962917 -0.269797 0
    outer loop
      vertex 18.4759 2.86849 1.5
      vertex 18.4759 2.86849 10
      vertex 17.9469 0.9804 10
    endloop
  endfacet
  facet normal 0.962917 -0.269797 0
    outer loop
      vertex 17.9469 0.9804 1.5
      vertex 18.4759 2.86849 1.5
      vertex 17.9469 0.9804 10
    endloop
  endfacet
  facet normal 1 0 -0
    outer loop
      vertex 17.9469 0.9804 1.5
      vertex 17.9469 0.9804 10
      vertex 17.9469 -0.9804 10
    endloop
  endfacet
  facet normal 1 0 0
    outer loop
      vertex 17.9469 -0.9804 1.5
      vertex 17.9469 0.9804 1.5
      vertex 17.9469 -0.9804 10
    endloop
  endfacet
  facet normal 0.962917 0.269797 0
    outer loop
      vertex 17.9469 -0.9804 10
      vertex 18.4759 -2.86849 10
      vertex 18.4759 -2.86849 1.5
    endloop
  endfacet
  facet normal 0.962917 0.269797 -0
    outer loop
      vertex 17.9469 -0.9804 1.5
      vertex 17.9469 -0.9804 10
      vertex 18.4759 -2.86849 1.5
    endloop
  endfacet
  facet normal 0.854419 0.519584 0
    outer loop
      vertex 18.4759 -2.86849 10
      vertex 19.4947 -4.54383 10
      vertex 19.4947 -4.54383 1.5
    endloop
  endfacet
  facet normal 0.854419 0.519584 -0
    outer loop
      vertex 18.4759 -2.86849 1.5
      vertex 18.4759 -2.86849 10
      vertex 19.4947 -4.54383 1.5
    endloop
  endfacet
  facet normal 0.682553 0.730836 0
    outer loop
      vertex 19.4947 -4.54383 10
      vertex 20.9278 -5.88218 10
      vertex 20.9278 -5.88218 1.5
    endloop
  endfacet
  facet normal 0.682553 0.730836 -0
    outer loop
      vertex 19.4947 -4.54383 1.5
      vertex 19.4947 -4.54383 10
      vertex 20.9278 -5.88218 1.5
    endloop
  endfacet
  facet normal 0.460065 0.887885 0
    outer loop
      vertex 20.9278 -5.88218 10
      vertex 22.6687 -6.78428 10
      vertex 22.6687 -6.78428 1.5
    endloop
  endfacet
  facet normal 0.460065 0.887885 -0
    outer loop
      vertex 20.9278 -5.88218 1.5
      vertex 20.9278 -5.88218 10
      vertex 22.6687 -6.78428 1.5
    endloop
  endfacet
  facet normal 0.203456 0.979084 0
    outer loop
      vertex 22.6687 -6.78428 10
      vertex 24.5885 -7.18322 10
      vertex 24.5885 -7.18322 1.5
    endloop
  endfacet
  facet normal 0.203456 0.979084 -0
    outer loop
      vertex 22.6687 -6.78428 1.5
      vertex 22.6687 -6.78428 10
      vertex 24.5885 -7.18322 1.5
    endloop
  endfacet
  facet normal -0.0682426 0.997669 0
    outer loop
      vertex 24.5885 -7.18322 10
      vertex 26.5448 -7.04941 10
      vertex 26.5448 -7.04941 1.5
    endloop
  endfacet
  facet normal -0.0682426 0.997669 0
    outer loop
      vertex 24.5885 -7.18322 1.5
      vertex 24.5885 -7.18322 10
      vertex 26.5448 -7.04941 1.5
    endloop
  endfacet
  facet normal -0.334879 0.942261 0
    outer loop
      vertex 26.5448 -7.04941 10
      vertex 28.3923 -6.39277 10
      vertex 28.3923 -6.39277 1.5
    endloop
  endfacet
  facet normal -0.334879 0.942261 0
    outer loop
      vertex 26.5448 -7.04941 1.5
      vertex 26.5448 -7.04941 10
      vertex 28.3923 -6.39277 1.5
    endloop
  endfacet
  facet normal -0.57668 0.81697 0
    outer loop
      vertex 28.3923 -6.39277 10
      vertex 29.9943 -5.26202 10
      vertex 29.9943 -5.26202 1.5
    endloop
  endfacet
  facet normal -0.57668 0.81697 0
    outer loop
      vertex 28.3923 -6.39277 1.5
      vertex 28.3923 -6.39277 10
      vertex 29.9943 -5.26202 1.5
    endloop
  endfacet
  facet normal -0.775711 0.631088 0
    outer loop
      vertex 29.9943 -5.26202 10
      vertex 31.2317 -3.741 10
      vertex 31.2317 -3.741 1.5
    endloop
  endfacet
  facet normal -0.775711 0.631088 0
    outer loop
      vertex 29.9943 -5.26202 1.5
      vertex 29.9943 -5.26202 10
      vertex 31.2317 -3.741 1.5
    endloop
  endfacet
  facet normal -0.917211 0.398401 0
    outer loop
      vertex 31.2317 -3.741 10
      vertex 32.0129 -1.94254 10
      vertex 32.0129 -1.94254 1.5
    endloop
  endfacet
  facet normal -0.917211 0.398401 0
    outer loop
      vertex 31.2317 -3.741 1.5
      vertex 31.2317 -3.741 10
      vertex 32.0129 -1.94254 1.5
    endloop
  endfacet
  facet normal -0.990686 0.136167 0
    outer loop
      vertex 32.0129 -1.94254 10
      vertex 32.2799 0 10
      vertex 32.2799 0 1.5
    endloop
  endfacet
  facet normal -0.990686 0.136167 0
    outer loop
      vertex 32.0129 -1.94254 1.5
      vertex 32.0129 -1.94254 10
      vertex 32.2799 0 1.5
    endloop
  endfacet
  facet normal 0 0 1
    outer loop
      vertex 22.6687 -6.78428 1.5
      vertex 25.3889 -0.951056 1.5
      vertex 24.2709 -0.587786 1.5
    endloop
  endfacet
  facet normal 0 0 1
    outer loop
      vertex 25.3889 -0.951056 1.5
      vertex 24.5885 -7.18322 1.5
      vertex 26.5448 -7.04941 1.5
    endloop
  endfacet
  facet normal 0 0 1
    outer loop
      vertex 28.3923 -6.39277 1.5
      vertex 25.3889 -0.951056 1.5
      vertex 26.5448 -7.04941 1.5
    endloop
  endfacet
  facet normal 0 0 1
    outer loop
      vertex 32.0129 1.94254 1.5
      vertex 26.0799 0 1.5
      vertex 32.2799 0 1.5
    endloop
  endfacet
  facet normal 0 0 1
    outer loop
      vertex 26.0799 0 1.5
      vertex 25.3889 -0.951056 1.5
      vertex 31.2317 -3.741 1.5
    endloop
  endfacet
  facet normal 0 0 1
    outer loop
      vertex 26.0799 0 1.5
      vertex 31.2317 -3.741 1.5
      vertex 32.0129 -1.94254 1.5
    endloop
  endfacet
  facet normal -0 0 1
    outer loop
      vertex 26.0799 0 1.5
      vertex 32.0129 -1.94254 1.5
      vertex 32.2799 0 1.5
    endloop
  endfacet
  facet normal 0 -0 1
    outer loop
      vertex 24.2709 -0.587786 1.5
      vertex 24.2709 0.587786 1.5
      vertex 17.9469 0.9804 1.5
    endloop
  endfacet
  facet normal 0 0 1
    outer loop
      vertex 31.2317 3.741 1.5
      vertex 26.0799 0 1.5
      vertex 32.0129 1.94254 1.5
    endloop
  endfacet
  facet normal 0 0 1
    outer loop
      vertex 28.3923 6.39277 1.5
      vertex 25.3889 0.951056 1.5
      vertex 29.9943 5.26202 1.5
    endloop
  endfacet
  facet normal 0 0 1
    outer loop
      vertex 26.5448 7.04941 1.5
      vertex 24.5885 7.18322 1.5
      vertex 25.3889 0.951056 1.5
    endloop
  endfacet
  facet normal 0 0 1
    outer loop
      vertex 26.5448 7.04941 1.5
      vertex 25.3889 0.951056 1.5
      vertex 28.3923 6.39277 1.5
    endloop
  endfacet
  facet normal -0 0 1
    outer loop
      vertex 18.4759 2.86849 1.5
      vertex 24.2709 0.587786 1.5
      vertex 19.4947 4.54383 1.5
    endloop
  endfacet
  facet normal -0 0 1
    outer loop
      vertex 22.6687 6.78428 1.5
      vertex 25.3889 0.951056 1.5
      vertex 24.5885 7.18322 1.5
    endloop
  endfacet
  facet normal 0 0 1
    outer loop
      vertex 25.3889 0.951056 1.5
      vertex 22.6687 6.78428 1.5
      vertex 24.2709 0.587786 1.5
    endloop
  endfacet
  facet normal 0 0 1
    outer loop
      vertex 24.2709 0.587786 1.5
      vertex 20.9278 5.88218 1.5
      vertex 19.4947 4.54383 1.5
    endloop
  endfacet
  facet normal 0 0 1
    outer loop
      vertex 22.6687 6.78428 1.5
      vertex 20.9278 5.88218 1.5
      vertex 24.2709 0.587786 1.5
    endloop
  endfacet
  facet normal 0 0 1
    outer loop
      vertex 24.2709 0.587786 1.5
      vertex 18.4759 2.86849 1.5
      vertex 17.9469 0.9804 1.5
    endloop
  endfacet
  facet normal 0 -0 1
    outer loop
      vertex 18.4759 -2.86849 1.5
      vertex 24.2709 -0.587786 1.5
      vertex 17.9469 -0.9804 1.5
    endloop
  endfacet
  facet normal -0 0 1
    outer loop
      vertex 20.9278 -5.88218 1.5
      vertex 22.6687 -6.78428 1.5
      vertex 24.2709 -0.587786 1.5
    endloop
  endfacet
  facet normal 0 0 1
    outer loop
      vertex 24.2709 -0.587786 1.5
      vertex 18.4759 -2.86849 1.5
      vertex 19.4947 -4.54383 1.5
    endloop
  endfacet
  facet normal 0 0 1
    outer loop
      vertex 17.9469 -0.9804 1.5
      vertex 24.2709 -0.587786 1.5
      vertex 17.9469 0.9804 1.5
    endloop
  endfacet
  facet normal 0 0 1
    outer loop
      vertex 25.3889 -0.951056 1.5
      vertex 28.3923 -6.39277 1.5
      vertex 29.9943 -5.26202 1.5
    endloop
  endfacet
  facet normal 0 0 1
    outer loop
      vertex 31.2317 3.741 1.5
      vertex 25.3889 0.951056 1.5
      vertex 26.0799 0 1.5
    endloop
  endfacet
  facet normal 0 0 1
    outer loop
      vertex 31.2317 3.741 1.5
      vertex 29.9943 5.26202 1.5
      vertex 25.3889 0.951056 1.5
    endloop
  endfacet
  facet normal 0 0 1
    outer loop
      vertex 25.3889 -0.951056 1.5
      vertex 29.9943 -5.26202 1.5
      vertex 31.2317 -3.741 1.5
    endloop
  endfacet
  facet normal 0 -0 1
    outer loop
      vertex 24.5885 -7.18322 1.5
      vertex 25.3889 -0.951056 1.5
      vertex 22.6687 -6.78428 1.5
    endloop
  endfacet
  facet normal 0 -0 1
    outer loop
      vertex 20.9278 -5.88218 1.5
      vertex 24.2709 -0.587786 1.5
      vertex 19.4947 -4.54383 1.5
    endloop
  endfacet
  facet normal -0.809017 -0.587785 0
    outer loop
      vertex 26.0799 0 0
      vertex 26.0799 0 1.5
      vertex 25.3889 0.951056 1.5
    endloop
  endfacet
  facet normal -0.809017 -0.587785 0
    outer loop
      vertex 25.3889 0.951056 0
      vertex 26.0799 0 0
      vertex 25.3889 0.951056 1.5
    endloop
  endfacet
  facet normal 0.309017 -0.951057 0
    outer loop
      vertex 25.3889 0.951056 0
      vertex 25.3889 0.951056 1.5
      vertex 24.2709 0.587786 1.5
    endloop
  endfacet
  facet normal 0.309017 -0.951057 0
    outer loop
      vertex 24.2709 0.587786 0
      vertex 25.3889 0.951056 0
      vertex 24.2709 0.587786 1.5
    endloop
  endfacet
  facet normal 1 0 -0
    outer loop
      vertex 24.2709 0.587786 0
      vertex 24.2709 0.587786 1.5
      vertex 24.2709 -0.587786 1.5
    endloop
  endfacet
  facet normal 1 0 0
    outer loop
      vertex 24.2709 -0.587786 0
      vertex 24.2709 0.587786 0
      vertex 24.2709 -0.587786 1.5
    endloop
  endfacet
  facet normal 0.309017 0.951057 0
    outer loop
      vertex 24.2709 -0.587786 1.5
      vertex 25.3889 -0.951056 1.5
      vertex 25.3889 -0.951056 0
    endloop
  endfacet
  facet normal 0.309017 0.951057 -0
    outer loop
      vertex 24.2709 -0.587786 0
      vertex 24.2709 -0.587786 1.5
      vertex 25.3889 -0.951056 0
    endloop
  endfacet
  facet normal -0.809017 0.587785 0
    outer loop
      vertex 25.3889 -0.951056 1.5
      vertex 26.0799 0 1.5
      vertex 26.0799 0 0
    endloop
  endfacet
  facet normal -0.809017 0.587785 0
    outer loop
      vertex 25.3889 -0.951056 0
      vertex 25.3889 -0.951056 1.5
      vertex 26.0799 0 0
    endloop
  endfacet
endsolid OpenSCAD_Model
