solid OpenSCAD_Model
  facet normal 0.993712 0.111965 0
    outer loop
      vertex 8.7 0 0
      vertex 8.48187 1.93593 0
      vertex 8.48187 1.93593 5
    endloop
  endfacet
  facet normal 0.993712 0.111965 0
    outer loop
      vertex 8.7 0 5
      vertex 8.7 0 0
      vertex 8.48187 1.93593 5
    endloop
  endfacet
  facet normal 0.943883 0.330279 0
    outer loop
      vertex 8.48187 1.93593 0
      vertex 7.83843 3.77479 0
      vertex 7.83843 3.77479 5
    endloop
  endfacet
  facet normal 0.943883 0.330279 0
    outer loop
      vertex 8.48187 1.93593 5
      vertex 8.48187 1.93593 0
      vertex 7.83843 3.77479 5
    endloop
  endfacet
  facet normal 0.846724 0.532032 0
    outer loop
      vertex 7.83843 3.77479 0
      vertex 6.80193 5.42436 0
      vertex 6.80193 5.42436 5
    endloop
  endfacet
  facet normal 0.846724 0.532032 0
    outer loop
      vertex 7.83843 3.77479 5
      vertex 7.83843 3.77479 0
      vertex 6.80193 5.42436 5
    endloop
  endfacet
  facet normal 0.707107 0.707107 0
    outer loop
      vertex 6.80193 5.42436 0
      vertex 5.42436 6.80193 0
      vertex 5.42436 6.80193 5
    endloop
  endfacet
  facet normal 0.707107 0.707107 0
    outer loop
      vertex 6.80193 5.42436 5
      vertex 6.80193 5.42436 0
      vertex 5.42436 6.80193 5
    endloop
  endfacet
  facet normal 0.532032 0.846724 0
    outer loop
      vertex 5.42436 6.80193 0
      vertex 3.77479 7.83843 0
      vertex 3.77479 7.83843 5
    endloop
  endfacet
  facet normal 0.532032 0.846724 0
    outer loop
      vertex 5.42436 6.80193 5
      vertex 5.42436 6.80193 0
      vertex 3.77479 7.83843 5
    endloop
  endfacet
  facet normal 0.330279 0.943883 0
    outer loop
      vertex 3.77479 7.83843 0
      vertex 1.93593 8.48187 0
      vertex 1.93593 8.48187 5
    endloop
  endfacet
  facet normal 0.330279 0.943883 0
    outer loop
      vertex 3.77479 7.83843 5
      vertex 3.77479 7.83843 0
      vertex 1.93593 8.48187 5
    endloop
  endfacet
  facet normal 0.111965 0.993712 0
    outer loop
      vertex 1.93593 8.48187 0
      vertex 0 8.7 0
      vertex 0 8.7 5
    endloop
  endfacet
  facet normal 0.111965 0.993712 0
    outer loop
      vertex 1.93593 8.48187 5
      vertex 1.93593 8.48187 0
      vertex 0 8.7 5
    endloop
  endfacet
  facet normal -0.111965 0.993712 0
    outer loop
      vertex 0 8.7 0
      vertex -1.93593 8.48187 0
      vertex -1.93593 8.48187 5
    endloop
  endfacet
  facet normal -0.111965 0.993712 0
    outer loop
      vertex 0 8.7 5
      vertex 0 8.7 0
      vertex -1.93593 8.48187 5
    endloop
  endfacet
  facet normal -0.330279 0.943883 0
    outer loop
      vertex -1.93593 8.48187 0
      vertex -3.77479 7.83843 0
      vertex -3.77479 7.83843 5
    endloop
  endfacet
  facet normal -0.330279 0.943883 0
    outer loop
      vertex -1.93593 8.48187 5
      vertex -1.93593 8.48187 0
      vertex -3.77479 7.83843 5
    endloop
  endfacet
  facet normal -0.532032 0.846724 0
    outer loop
      vertex -3.77479 7.83843 0
      vertex -5.42436 6.80193 0
      vertex -5.42436 6.80193 5
    endloop
  endfacet
  facet normal -0.532032 0.846724 0
    outer loop
      vertex -3.77479 7.83843 5
      vertex -3.77479 7.83843 0
      vertex -5.42436 6.80193 5
    endloop
  endfacet
  facet normal -0.707107 0.707107 0
    outer loop
      vertex -5.42436 6.80193 0
      vertex -6.80193 5.42436 0
      vertex -6.80193 5.42436 5
    endloop
  endfacet
  facet normal -0.707107 0.707107 0
    outer loop
      vertex -5.42436 6.80193 5
      vertex -5.42436 6.80193 0
      vertex -6.80193 5.42436 5
    endloop
  endfacet
  facet normal -0.846724 0.532032 0
    outer loop
      vertex -6.80193 5.42436 0
      vertex -7.83843 3.77479 0
      vertex -7.83843 3.77479 5
    endloop
  endfacet
  facet normal -0.846724 0.532032 0
    outer loop
      vertex -6.80193 5.42436 5
      vertex -6.80193 5.42436 0
      vertex -7.83843 3.77479 5
    endloop
  endfacet
  facet normal -0.943883 0.330279 0
    outer loop
      vertex -7.83843 3.77479 0
      vertex -8.48187 1.93593 0
      vertex -8.48187 1.93593 5
    endloop
  endfacet
  facet normal -0.943883 0.330279 0
    outer loop
      vertex -7.83843 3.77479 5
      vertex -7.83843 3.77479 0
      vertex -8.48187 1.93593 5
    endloop
  endfacet
  facet normal -0.993712 0.111965 0
    outer loop
      vertex -8.48187 1.93593 0
      vertex -8.7 0 0
      vertex -8.7 0 5
    endloop
  endfacet
  facet normal -0.993712 0.111965 0
    outer loop
      vertex -8.48187 1.93593 5
      vertex -8.48187 1.93593 0
      vertex -8.7 0 5
    endloop
  endfacet
  facet normal -0.993712 -0.111965 -0
    outer loop
      vertex -8.7 0 5
      vertex -8.7 0 0
      vertex -8.48187 -1.93593 0
    endloop
  endfacet
  facet normal -0.993712 -0.111965 -0
    outer loop
      vertex -8.48187 -1.93593 5
      vertex -8.7 0 5
      vertex -8.48187 -1.93593 0
    endloop
  endfacet
  facet normal -0.943883 -0.330279 -0
    outer loop
      vertex -8.48187 -1.93593 5
      vertex -8.48187 -1.93593 0
      vertex -7.83843 -3.77479 0
    endloop
  endfacet
  facet normal -0.943883 -0.330279 -0
    outer loop
      vertex -7.83843 -3.77479 5
      vertex -8.48187 -1.93593 5
      vertex -7.83843 -3.77479 0
    endloop
  endfacet
  facet normal -0.846724 -0.532032 -0
    outer loop
      vertex -7.83843 -3.77479 5
      vertex -7.83843 -3.77479 0
      vertex -6.80193 -5.42436 0
    endloop
  endfacet
  facet normal -0.846724 -0.532032 -0
    outer loop
      vertex -6.80193 -5.42436 5
      vertex -7.83843 -3.77479 5
      vertex -6.80193 -5.42436 0
    endloop
  endfacet
  facet normal -0.707107 -0.707107 -0
    outer loop
      vertex -6.80193 -5.42436 5
      vertex -6.80193 -5.42436 0
      vertex -5.42436 -6.80193 0
    endloop
  endfacet
  facet normal -0.707107 -0.707107 -0
    outer loop
      vertex -5.42436 -6.80193 5
      vertex -6.80193 -5.42436 5
      vertex -5.42436 -6.80193 0
    endloop
  endfacet
  facet normal -0.532032 -0.846724 -0
    outer loop
      vertex -5.42436 -6.80193 5
      vertex -5.42436 -6.80193 0
      vertex -3.77479 -7.83843 0
    endloop
  endfacet
  facet normal -0.532032 -0.846724 -0
    outer loop
      vertex -3.77479 -7.83843 5
      vertex -5.42436 -6.80193 5
      vertex -3.77479 -7.83843 0
    endloop
  endfacet
  facet normal -0.330279 -0.943883 -0
    outer loop
      vertex -3.77479 -7.83843 5
      vertex -3.77479 -7.83843 0
      vertex -1.93593 -8.48187 0
    endloop
  endfacet
  facet normal -0.330279 -0.943883 -0
    outer loop
      vertex -1.93593 -8.48187 5
      vertex -3.77479 -7.83843 5
      vertex -1.93593 -8.48187 0
    endloop
  endfacet
  facet normal -0.111965 -0.993712 -0
    outer loop
      vertex -1.93593 -8.48187 5
      vertex -1.93593 -8.48187 0
      vertex 0 -8.7 0
    endloop
  endfacet
  facet normal -0.111965 -0.993712 -0
    outer loop
      vertex 0 -8.7 5
      vertex -1.93593 -8.48187 5
      vertex 0 -8.7 0
    endloop
  endfacet
  facet normal 0.111965 -0.993712 0
    outer loop
      vertex 0 -8.7 5
      vertex 0 -8.7 0
      vertex 1.93593 -8.48187 0
    endloop
  endfacet
  facet normal 0.111965 -0.993712 0
    outer loop
      vertex 1.93593 -8.48187 5
      vertex 0 -8.7 5
      vertex 1.93593 -8.48187 0
    endloop
  endfacet
  facet normal 0.330279 -0.943883 0
    outer loop
      vertex 1.93593 -8.48187 5
      vertex 1.93593 -8.48187 0
      vertex 3.77479 -7.83843 0
    endloop
  endfacet
  facet normal 0.330279 -0.943883 0
    outer loop
      vertex 3.77479 -7.83843 5
      vertex 1.93593 -8.48187 5
      vertex 3.77479 -7.83843 0
    endloop
  endfacet
  facet normal 0.532032 -0.846724 0
    outer loop
      vertex 3.77479 -7.83843 5
      vertex 3.77479 -7.83843 0
      vertex 5.42436 -6.80193 0
    endloop
  endfacet
  facet normal 0.532032 -0.846724 0
    outer loop
      vertex 5.42436 -6.80193 5
      vertex 3.77479 -7.83843 5
      vertex 5.42436 -6.80193 0
    endloop
  endfacet
  facet normal 0.707107 -0.707107 0
    outer loop
      vertex 5.42436 -6.80193 5
      vertex 5.42436 -6.80193 0
      vertex 6.80193 -5.42436 0
    endloop
  endfacet
  facet normal 0.707107 -0.707107 0
    outer loop
      vertex 6.80193 -5.42436 5
      vertex 5.42436 -6.80193 5
      vertex 6.80193 -5.42436 0
    endloop
  endfacet
  facet normal 0.846724 -0.532032 0
    outer loop
      vertex 6.80193 -5.42436 5
      vertex 6.80193 -5.42436 0
      vertex 7.83843 -3.77479 0
    endloop
  endfacet
  facet normal 0.846724 -0.532032 0
    outer loop
      vertex 7.83843 -3.77479 5
      vertex 6.80193 -5.42436 5
      vertex 7.83843 -3.77479 0
    endloop
  endfacet
  facet normal 0.943883 -0.330279 0
    outer loop
      vertex 7.83843 -3.77479 5
      vertex 7.83843 -3.77479 0
      vertex 8.48187 -1.93593 0
    endloop
  endfacet
  facet normal 0.943883 -0.330279 0
    outer loop
      vertex 8.48187 -1.93593 5
      vertex 7.83843 -3.77479 5
      vertex 8.48187 -1.93593 0
    endloop
  endfacet
  facet normal 0.993712 -0.111965 0
    outer loop
      vertex 8.48187 -1.93593 5
      vertex 8.48187 -1.93593 0
      vertex 8.7 0 0
    endloop
  endfacet
  facet normal 0.993712 -0.111965 0
    outer loop
      vertex 8.7 0 5
      vertex 8.48187 -1.93593 5
      vertex 8.7 0 0
    endloop
  endfacet
  facet normal -0 0 -1
    outer loop
      vertex -0.809017 0.587786 0
      vertex -8.7 0 0
      vertex -8.48187 1.93593 0
    endloop
  endfacet
  facet normal 0 0 -1
    outer loop
      vertex -6.80193 5.42436 0
      vertex -5.42436 6.80193 0
      vertex -0.809017 0.587786 0
    endloop
  endfacet
  facet normal 0 0 -1
    outer loop
      vertex -7.83843 3.77479 0
      vertex -6.80193 5.42436 0
      vertex -0.809017 0.587786 0
    endloop
  endfacet
  facet normal 0 0 -1
    outer loop
      vertex -0.809017 0.587786 0
      vertex -3.77479 7.83843 0
      vertex -1.93593 8.48187 0
    endloop
  endfacet
  facet normal 0 0 -1
    outer loop
      vertex -5.42436 6.80193 0
      vertex -3.77479 7.83843 0
      vertex -0.809017 0.587786 0
    endloop
  endfacet
  facet normal 0 -0 -1
    outer loop
      vertex -7.83843 3.77479 0
      vertex -0.809017 0.587786 0
      vertex -8.48187 1.93593 0
    endloop
  endfacet
  facet normal 0 0 -1
    outer loop
      vertex 0 8.7 0
      vertex 1.93593 8.48187 0
      vertex 0.309017 0.951056 0
    endloop
  endfacet
  facet normal 0 0 -1
    outer loop
      vertex 0.309017 0.951056 0
      vertex 3.77479 7.83843 0
      vertex 5.42436 6.80193 0
    endloop
  endfacet
  facet normal 0 0 -1
    outer loop
      vertex 0.309017 0.951056 0
      vertex 5.42436 6.80193 0
      vertex 6.80193 5.42436 0
    endloop
  endfacet
  facet normal 0 0 -1
    outer loop
      vertex 0.309017 0.951056 0
      vertex 6.80193 5.42436 0
      vertex 1 0 0
    endloop
  endfacet
  facet normal 0 0 -1
    outer loop
      vertex 1 0 0
      vertex 7.83843 3.77479 0
      vertex 8.48187 1.93593 0
    endloop
  endfacet
  facet normal 0 0 -1
    outer loop
      vertex 1 0 0
      vertex 8.48187 1.93593 0
      vertex 8.7 0 0
    endloop
  endfacet
  facet normal 0 0 -1
    outer loop
      vertex 1 0 0
      vertex 8.7 0 0
      vertex 8.48187 -1.93593 0
    endloop
  endfacet
  facet normal 0 0 -1
    outer loop
      vertex 1 0 0
      vertex 8.48187 -1.93593 0
      vertex 7.83843 -3.77479 0
    endloop
  endfacet
  facet normal 0 0 -1
    outer loop
      vertex 0.309017 -0.951056 0
      vertex 1 0 0
      vertex 6.80193 -5.42436 0
    endloop
  endfacet
  facet normal 0 0 -1
    outer loop
      vertex 0.309017 -0.951056 0
      vertex 6.80193 -5.42436 0
      vertex 5.42436 -6.80193 0
    endloop
  endfacet
  facet normal 0 0 -1
    outer loop
      vertex 1.93593 -8.48187 0
      vertex 0.309017 -0.951056 0
      vertex 3.77479 -7.83843 0
    endloop
  endfacet
  facet normal 0 0 -1
    outer loop
      vertex 0.309017 -0.951056 0
      vertex 5.42436 -6.80193 0
      vertex 3.77479 -7.83843 0
    endloop
  endfacet
  facet normal 0 -0 -1
    outer loop
      vertex 0.309017 -0.951056 0
      vertex 1.93593 -8.48187 0
      vertex 0 -8.7 0
    endloop
  endfacet
  facet normal 0 0 -1
    outer loop
      vertex -5.42436 -6.80193 0
      vertex -0.809017 -0.587786 0
      vertex -3.77479 -7.83843 0
    endloop
  endfacet
  facet normal 0 0 -1
    outer loop
      vertex -0.809017 -0.587786 0
      vertex -1.93593 -8.48187 0
      vertex -3.77479 -7.83843 0
    endloop
  endfacet
  facet normal 0 -0 -1
    outer loop
      vertex -0.809017 0.587786 0
      vertex -0.809017 -0.587786 0
      vertex -8.7 0 0
    endloop
  endfacet
  facet normal 0 0 -1
    outer loop
      vertex -0.809017 -0.587786 0
      vertex -5.42436 -6.80193 0
      vertex -6.80193 -5.42436 0
    endloop
  endfacet
  facet normal 0 0 -1
    outer loop
      vertex -0.809017 -0.587786 0
      vertex -6.80193 -5.42436 0
      vertex -7.83843 -3.77479 0
    endloop
  endfacet
  facet normal 0 0 -1
    outer loop
      vertex -0.809017 -0.587786 0
      vertex -7.83843 -3.77479 0
      vertex -8.48187 -1.93593 0
    endloop
  endfacet
  facet normal -0 0 -1
    outer loop
      vertex -0.809017 -0.587786 0
      vertex -8.48187 -1.93593 0
      vertex -8.7 0 0
    endloop
  endfacet
  facet normal 0 -0 -1
    outer loop
      vertex 0 8.7 0
      vertex 0.309017 0.951056 0
      vertex -1.93593 8.48187 0
    endloop
  endfacet
  facet normal 0 0 -1
    outer loop
      vertex 0.309017 -0.951056 0
      vertex 0 -8.7 0
      vertex -1.93593 -8.48187 0
    endloop
  endfacet
  facet normal -0 0 -1
    outer loop
      vertex 0.309017 -0.951056 0
      vertex -1.93593 -8.48187 0
      vertex -0.809017 -0.587786 0
    endloop
  endfacet
  facet normal 0 0 -1
    outer loop
      vertex 1 0 0
      vertex 7.83843 -3.77479 0
      vertex 6.80193 -5.42436 0
    endloop
  endfacet
  facet normal 0 -0 -1
    outer loop
      vertex 6.80193 5.42436 0
      vertex 7.83843 3.77479 0
      vertex 1 0 0
    endloop
  endfacet
  facet normal 0 0 -1
    outer loop
      vertex -1.93593 8.48187 0
      vertex 0.309017 0.951056 0
      vertex -0.809017 0.587786 0
    endloop
  endfacet
  facet normal 0 -0 -1
    outer loop
      vertex 1.93593 8.48187 0
      vertex 3.77479 7.83843 0
      vertex 0.309017 0.951056 0
    endloop
  endfacet
  facet normal 0 0 1
    outer loop
      vertex -7.13294 -0.9804 5
      vertex -8.7 0 5
      vertex -8.48187 -1.93593 5
    endloop
  endfacet
  facet normal 0 0 1
    outer loop
      vertex -4.1521 -5.88218 5
      vertex -5.42436 -6.80193 5
      vertex -3.77479 -7.83843 5
    endloop
  endfacet
  facet normal 0 0 1
    outer loop
      vertex -5.58512 -4.54383 5
      vertex -6.80193 -5.42436 5
      vertex -5.42436 -6.80193 5
    endloop
  endfacet
  facet normal 0 0 1
    outer loop
      vertex 0 -8.7 5
      vertex -0.491345 -7.18322 5
      vertex -1.93593 -8.48187 5
    endloop
  endfacet
  facet normal 0 0 1
    outer loop
      vertex -0.491345 -7.18322 5
      vertex -2.41113 -6.78428 5
      vertex -1.93593 -8.48187 5
    endloop
  endfacet
  facet normal 0 -0 1
    outer loop
      vertex -7.13294 -0.9804 5
      vertex -7.13294 0.9804 5
      vertex -8.7 0 5
    endloop
  endfacet
  facet normal 0 0 1
    outer loop
      vertex 3.31247 -6.39277 5
      vertex 1.46488 -7.04941 5
      vertex 3.77479 -7.83843 5
    endloop
  endfacet
  facet normal 0 0 1
    outer loop
      vertex 4.91438 -5.26202 5
      vertex 3.31247 -6.39277 5
      vertex 5.42436 -6.80193 5
    endloop
  endfacet
  facet normal 0 0 1
    outer loop
      vertex 6.15182 -3.741 5
      vertex 4.91438 -5.26202 5
      vertex 6.80193 -5.42436 5
    endloop
  endfacet
  facet normal 0 0 1
    outer loop
      vertex 6.933 -1.94254 5
      vertex 6.15182 -3.741 5
      vertex 7.83843 -3.77479 5
    endloop
  endfacet
  facet normal 0 0 1
    outer loop
      vertex 7.2 0 5
      vertex 6.933 -1.94254 5
      vertex 8.48187 -1.93593 5
    endloop
  endfacet
  facet normal -0 0 1
    outer loop
      vertex 7.2 0 5
      vertex 8.48187 -1.93593 5
      vertex 8.7 0 5
    endloop
  endfacet
  facet normal 0 0 1
    outer loop
      vertex 6.933 1.94254 5
      vertex 7.2 0 5
      vertex 8.48187 1.93593 5
    endloop
  endfacet
  facet normal -0 0 1
    outer loop
      vertex 6.15182 3.741 5
      vertex 6.933 1.94254 5
      vertex 7.83843 3.77479 5
    endloop
  endfacet
  facet normal -0 0 1
    outer loop
      vertex 4.91438 5.26202 5
      vertex 6.15182 3.741 5
      vertex 6.80193 5.42436 5
    endloop
  endfacet
  facet normal -0 0 1
    outer loop
      vertex 3.31247 6.39277 5
      vertex 4.91438 5.26202 5
      vertex 5.42436 6.80193 5
    endloop
  endfacet
  facet normal 0 0 1
    outer loop
      vertex 1.93593 8.48187 5
      vertex 1.46488 7.04941 5
      vertex 3.77479 7.83843 5
    endloop
  endfacet
  facet normal -0 0 1
    outer loop
      vertex 1.46488 7.04941 5
      vertex 3.31247 6.39277 5
      vertex 3.77479 7.83843 5
    endloop
  endfacet
  facet normal -0 0 1
    outer loop
      vertex -0.491345 7.18322 5
      vertex 1.46488 7.04941 5
      vertex 0 8.7 5
    endloop
  endfacet
  facet normal 0 0 1
    outer loop
      vertex -2.41113 6.78428 5
      vertex -0.491345 7.18322 5
      vertex -1.93593 8.48187 5
    endloop
  endfacet
  facet normal 0 0 1
    outer loop
      vertex -4.1521 5.88218 5
      vertex -2.41113 6.78428 5
      vertex -3.77479 7.83843 5
    endloop
  endfacet
  facet normal 0 0 1
    outer loop
      vertex -5.58512 4.54383 5
      vertex -4.1521 5.88218 5
      vertex -5.42436 6.80193 5
    endloop
  endfacet
  facet normal 0 -0 1
    outer loop
      vertex -5.58512 4.54383 5
      vertex -5.42436 6.80193 5
      vertex -6.80193 5.42436 5
    endloop
  endfacet
  facet normal 0 -0 1
    outer loop
      vertex -6.60392 2.86849 5
      vertex -5.58512 4.54383 5
      vertex -7.83843 3.77479 5
    endloop
  endfacet
  facet normal 0 -0 1
    outer loop
      vertex -7.13294 0.9804 5
      vertex -6.60392 2.86849 5
      vertex -8.48187 1.93593 5
    endloop
  endfacet
  facet normal 0 0 1
    outer loop
      vertex -7.13294 0.9804 5
      vertex -8.48187 1.93593 5
      vertex -8.7 0 5
    endloop
  endfacet
  facet normal 0 -0 1
    outer loop
      vertex -7.83843 -3.77479 5
      vertex -6.60392 -2.86849 5
      vertex -8.48187 -1.93593 5
    endloop
  endfacet
  facet normal 0 0 1
    outer loop
      vertex 1.46488 -7.04941 5
      vertex 0 -8.7 5
      vertex 1.93593 -8.48187 5
    endloop
  endfacet
  facet normal 0 0 1
    outer loop
      vertex -6.60392 2.86849 5
      vertex -7.83843 3.77479 5
      vertex -8.48187 1.93593 5
    endloop
  endfacet
  facet normal 0 0 1
    outer loop
      vertex -5.58512 4.54383 5
      vertex -6.80193 5.42436 5
      vertex -7.83843 3.77479 5
    endloop
  endfacet
  facet normal 0 -0 1
    outer loop
      vertex -4.1521 5.88218 5
      vertex -3.77479 7.83843 5
      vertex -5.42436 6.80193 5
    endloop
  endfacet
  facet normal 0 -0 1
    outer loop
      vertex -2.41113 6.78428 5
      vertex -1.93593 8.48187 5
      vertex -3.77479 7.83843 5
    endloop
  endfacet
  facet normal 0 -0 1
    outer loop
      vertex -0.491345 7.18322 5
      vertex 0 8.7 5
      vertex -1.93593 8.48187 5
    endloop
  endfacet
  facet normal 0 -0 1
    outer loop
      vertex 1.46488 7.04941 5
      vertex 1.93593 8.48187 5
      vertex 0 8.7 5
    endloop
  endfacet
  facet normal 0 0 1
    outer loop
      vertex 3.31247 6.39277 5
      vertex 5.42436 6.80193 5
      vertex 3.77479 7.83843 5
    endloop
  endfacet
  facet normal 0 0 1
    outer loop
      vertex 4.91438 5.26202 5
      vertex 6.80193 5.42436 5
      vertex 5.42436 6.80193 5
    endloop
  endfacet
  facet normal 0 0 1
    outer loop
      vertex 6.15182 3.741 5
      vertex 7.83843 3.77479 5
      vertex 6.80193 5.42436 5
    endloop
  endfacet
  facet normal -0 0 1
    outer loop
      vertex 6.933 1.94254 5
      vertex 8.48187 1.93593 5
      vertex 7.83843 3.77479 5
    endloop
  endfacet
  facet normal 0 0 1
    outer loop
      vertex 7.2 0 5
      vertex 8.7 0 5
      vertex 8.48187 1.93593 5
    endloop
  endfacet
  facet normal -0 0 1
    outer loop
      vertex 6.933 -1.94254 5
      vertex 7.83843 -3.77479 5
      vertex 8.48187 -1.93593 5
    endloop
  endfacet
  facet normal 0 0 1
    outer loop
      vertex 6.15182 -3.741 5
      vertex 6.80193 -5.42436 5
      vertex 7.83843 -3.77479 5
    endloop
  endfacet
  facet normal 0 0 1
    outer loop
      vertex 4.91438 -5.26202 5
      vertex 5.42436 -6.80193 5
      vertex 6.80193 -5.42436 5
    endloop
  endfacet
  facet normal 0 0 1
    outer loop
      vertex 3.31247 -6.39277 5
      vertex 3.77479 -7.83843 5
      vertex 5.42436 -6.80193 5
    endloop
  endfacet
  facet normal 0 0 1
    outer loop
      vertex 1.46488 -7.04941 5
      vertex 1.93593 -8.48187 5
      vertex 3.77479 -7.83843 5
    endloop
  endfacet
  facet normal 0 -0 1
    outer loop
      vertex 0 -8.7 5
      vertex 1.46488 -7.04941 5
      vertex -0.491345 -7.18322 5
    endloop
  endfacet
  facet normal 0 0 1
    outer loop
      vertex -2.41113 -6.78428 5
      vertex -3.77479 -7.83843 5
      vertex -1.93593 -8.48187 5
    endloop
  endfacet
  facet normal 0 0 1
    outer loop
      vertex -4.1521 -5.88218 5
      vertex -3.77479 -7.83843 5
      vertex -2.41113 -6.78428 5
    endloop
  endfacet
  facet normal 0 0 1
    outer loop
      vertex -5.58512 -4.54383 5
      vertex -5.42436 -6.80193 5
      vertex -4.1521 -5.88218 5
    endloop
  endfacet
  facet normal 0 0 1
    outer loop
      vertex -7.83843 -3.77479 5
      vertex -6.80193 -5.42436 5
      vertex -5.58512 -4.54383 5
    endloop
  endfacet
  facet normal -0 0 1
    outer loop
      vertex -8.48187 -1.93593 5
      vertex -6.60392 -2.86849 5
      vertex -7.13294 -0.9804 5
    endloop
  endfacet
  facet normal -0 0 1
    outer loop
      vertex -7.83843 -3.77479 5
      vertex -5.58512 -4.54383 5
      vertex -6.60392 -2.86849 5
    endloop
  endfacet
  facet normal -0.990686 -0.136167 0
    outer loop
      vertex 7.2 0 1.5
      vertex 7.2 0 5
      vertex 6.933 1.94254 5
    endloop
  endfacet
  facet normal -0.990686 -0.136167 0
    outer loop
      vertex 6.933 1.94254 1.5
      vertex 7.2 0 1.5
      vertex 6.933 1.94254 5
    endloop
  endfacet
  facet normal -0.917211 -0.398401 0
    outer loop
      vertex 6.933 1.94254 1.5
      vertex 6.933 1.94254 5
      vertex 6.15182 3.741 5
    endloop
  endfacet
  facet normal -0.917211 -0.398401 0
    outer loop
      vertex 6.15182 3.741 1.5
      vertex 6.933 1.94254 1.5
      vertex 6.15182 3.741 5
    endloop
  endfacet
  facet normal -0.775711 -0.631088 0
    outer loop
      vertex 6.15182 3.741 1.5
      vertex 6.15182 3.741 5
      vertex 4.91438 5.26202 5
    endloop
  endfacet
  facet normal -0.775711 -0.631088 0
    outer loop
      vertex 4.91438 5.26202 1.5
      vertex 6.15182 3.741 1.5
      vertex 4.91438 5.26202 5
    endloop
  endfacet
  facet normal -0.57668 -0.81697 0
    outer loop
      vertex 4.91438 5.26202 1.5
      vertex 4.91438 5.26202 5
      vertex 3.31247 6.39277 5
    endloop
  endfacet
  facet normal -0.57668 -0.81697 0
    outer loop
      vertex 3.31247 6.39277 1.5
      vertex 4.91438 5.26202 1.5
      vertex 3.31247 6.39277 5
    endloop
  endfacet
  facet normal -0.334879 -0.942261 0
    outer loop
      vertex 3.31247 6.39277 1.5
      vertex 3.31247 6.39277 5
      vertex 1.46488 7.04941 5
    endloop
  endfacet
  facet normal -0.334879 -0.942261 0
    outer loop
      vertex 1.46488 7.04941 1.5
      vertex 3.31247 6.39277 1.5
      vertex 1.46488 7.04941 5
    endloop
  endfacet
  facet normal -0.0682426 -0.997669 0
    outer loop
      vertex 1.46488 7.04941 1.5
      vertex 1.46488 7.04941 5
      vertex -0.491345 7.18322 5
    endloop
  endfacet
  facet normal -0.0682426 -0.997669 0
    outer loop
      vertex -0.491345 7.18322 1.5
      vertex 1.46488 7.04941 1.5
      vertex -0.491345 7.18322 5
    endloop
  endfacet
  facet normal 0.203456 -0.979084 0
    outer loop
      vertex -0.491345 7.18322 1.5
      vertex -0.491345 7.18322 5
      vertex -2.41113 6.78428 5
    endloop
  endfacet
  facet normal 0.203456 -0.979084 0
    outer loop
      vertex -2.41113 6.78428 1.5
      vertex -0.491345 7.18322 1.5
      vertex -2.41113 6.78428 5
    endloop
  endfacet
  facet normal 0.460065 -0.887885 0
    outer loop
      vertex -2.41113 6.78428 1.5
      vertex -2.41113 6.78428 5
      vertex -4.1521 5.88218 5
    endloop
  endfacet
  facet normal 0.460065 -0.887885 0
    outer loop
      vertex -4.1521 5.88218 1.5
      vertex -2.41113 6.78428 1.5
      vertex -4.1521 5.88218 5
    endloop
  endfacet
  facet normal 0.682553 -0.730836 0
    outer loop
      vertex -4.1521 5.88218 1.5
      vertex -4.1521 5.88218 5
      vertex -5.58512 4.54383 5
    endloop
  endfacet
  facet normal 0.682553 -0.730836 0
    outer loop
      vertex -5.58512 4.54383 1.5
      vertex -4.1521 5.88218 1.5
      vertex -5.58512 4.54383 5
    endloop
  endfacet
  facet normal 0.854419 -0.519584 0
    outer loop
      vertex -5.58512 4.54383 1.5
      vertex -5.58512 4.54383 5
      vertex -6.60392 2.86849 5
    endloop
  endfacet
  facet normal 0.854419 -0.519584 0
    outer loop
      vertex -6.60392 2.86849 1.5
      vertex -5.58512 4.54383 1.5
      vertex -6.60392 2.86849 5
    endloop
  endfacet
  facet normal 0.962917 -0.269797 0
    outer loop
      vertex -6.60392 2.86849 1.5
      vertex -6.60392 2.86849 5
      vertex -7.13294 0.9804 5
    endloop
  endfacet
  facet normal 0.962917 -0.269797 0
    outer loop
      vertex -7.13294 0.9804 1.5
      vertex -6.60392 2.86849 1.5
      vertex -7.13294 0.9804 5
    endloop
  endfacet
  facet normal 1 0 -0
    outer loop
      vertex -7.13294 0.9804 1.5
      vertex -7.13294 0.9804 5
      vertex -7.13294 -0.9804 5
    endloop
  endfacet
  facet normal 1 0 0
    outer loop
      vertex -7.13294 -0.9804 1.5
      vertex -7.13294 0.9804 1.5
      vertex -7.13294 -0.9804 5
    endloop
  endfacet
  facet normal 0.962917 0.269797 0
    outer loop
      vertex -7.13294 -0.9804 5
      vertex -6.60392 -2.86849 5
      vertex -6.60392 -2.86849 1.5
    endloop
  endfacet
  facet normal 0.962917 0.269797 -0
    outer loop
      vertex -7.13294 -0.9804 1.5
      vertex -7.13294 -0.9804 5
      vertex -6.60392 -2.86849 1.5
    endloop
  endfacet
  facet normal 0.854419 0.519584 0
    outer loop
      vertex -6.60392 -2.86849 5
      vertex -5.58512 -4.54383 5
      vertex -5.58512 -4.54383 1.5
    endloop
  endfacet
  facet normal 0.854419 0.519584 -0
    outer loop
      vertex -6.60392 -2.86849 1.5
      vertex -6.60392 -2.86849 5
      vertex -5.58512 -4.54383 1.5
    endloop
  endfacet
  facet normal 0.682553 0.730836 0
    outer loop
      vertex -5.58512 -4.54383 5
      vertex -4.1521 -5.88218 5
      vertex -4.1521 -5.88218 1.5
    endloop
  endfacet
  facet normal 0.682553 0.730836 -0
    outer loop
      vertex -5.58512 -4.54383 1.5
      vertex -5.58512 -4.54383 5
      vertex -4.1521 -5.88218 1.5
    endloop
  endfacet
  facet normal 0.460065 0.887885 0
    outer loop
      vertex -4.1521 -5.88218 5
      vertex -2.41113 -6.78428 5
      vertex -2.41113 -6.78428 1.5
    endloop
  endfacet
  facet normal 0.460065 0.887885 -0
    outer loop
      vertex -4.1521 -5.88218 1.5
      vertex -4.1521 -5.88218 5
      vertex -2.41113 -6.78428 1.5
    endloop
  endfacet
  facet normal 0.203456 0.979084 0
    outer loop
      vertex -2.41113 -6.78428 5
      vertex -0.491345 -7.18322 5
      vertex -0.491345 -7.18322 1.5
    endloop
  endfacet
  facet normal 0.203456 0.979084 -0
    outer loop
      vertex -2.41113 -6.78428 1.5
      vertex -2.41113 -6.78428 5
      vertex -0.491345 -7.18322 1.5
    endloop
  endfacet
  facet normal -0.0682426 0.997669 0
    outer loop
      vertex -0.491345 -7.18322 5
      vertex 1.46488 -7.04941 5
      vertex 1.46488 -7.04941 1.5
    endloop
  endfacet
  facet normal -0.0682426 0.997669 0
    outer loop
      vertex -0.491345 -7.18322 1.5
      vertex -0.491345 -7.18322 5
      vertex 1.46488 -7.04941 1.5
    endloop
  endfacet
  facet normal -0.334879 0.942261 0
    outer loop
      vertex 1.46488 -7.04941 5
      vertex 3.31247 -6.39277 5
      vertex 3.31247 -6.39277 1.5
    endloop
  endfacet
  facet normal -0.334879 0.942261 0
    outer loop
      vertex 1.46488 -7.04941 1.5
      vertex 1.46488 -7.04941 5
      vertex 3.31247 -6.39277 1.5
    endloop
  endfacet
  facet normal -0.57668 0.81697 0
    outer loop
      vertex 3.31247 -6.39277 5
      vertex 4.91438 -5.26202 5
      vertex 4.91438 -5.26202 1.5
    endloop
  endfacet
  facet normal -0.57668 0.81697 0
    outer loop
      vertex 3.31247 -6.39277 1.5
      vertex 3.31247 -6.39277 5
      vertex 4.91438 -5.26202 1.5
    endloop
  endfacet
  facet normal -0.775711 0.631088 0
    outer loop
      vertex 4.91438 -5.26202 5
      vertex 6.15182 -3.741 5
      vertex 6.15182 -3.741 1.5
    endloop
  endfacet
  facet normal -0.775711 0.631088 0
    outer loop
      vertex 4.91438 -5.26202 1.5
      vertex 4.91438 -5.26202 5
      vertex 6.15182 -3.741 1.5
    endloop
  endfacet
  facet normal -0.917211 0.398401 0
    outer loop
      vertex 6.15182 -3.741 5
      vertex 6.933 -1.94254 5
      vertex 6.933 -1.94254 1.5
    endloop
  endfacet
  facet normal -0.917211 0.398401 0
    outer loop
      vertex 6.15182 -3.741 1.5
      vertex 6.15182 -3.741 5
      vertex 6.933 -1.94254 1.5
    endloop
  endfacet
  facet normal -0.990686 0.136167 0
    outer loop
      vertex 6.933 -1.94254 5
      vertex 7.2 0 5
      vertex 7.2 0 1.5
    endloop
  endfacet
  facet normal -0.990686 0.136167 0
    outer loop
      vertex 6.933 -1.94254 1.5
      vertex 6.933 -1.94254 5
      vertex 7.2 0 1.5
    endloop
  endfacet
  facet normal 0 0 1
    outer loop
      vertex -2.41113 -6.78428 1.5
      vertex 0.309017 -0.951056 1.5
      vertex -0.809017 -0.587786 1.5
    endloop
  endfacet
  facet normal 0 0 1
    outer loop
      vertex 0.309017 -0.951056 1.5
      vertex -0.491345 -7.18322 1.5
      vertex 1.46488 -7.04941 1.5
    endloop
  endfacet
  facet normal 0 0 1
    outer loop
      vertex 3.31247 -6.39277 1.5
      vertex 0.309017 -0.951056 1.5
      vertex 1.46488 -7.04941 1.5
    endloop
  endfacet
  facet normal 0 0 1
    outer loop
      vertex 6.933 1.94254 1.5
      vertex 1 0 1.5
      vertex 7.2 0 1.5
    endloop
  endfacet
  facet normal 0 0 1
    outer loop
      vertex 1 0 1.5
      vertex 0.309017 -0.951056 1.5
      vertex 6.15182 -3.741 1.5
    endloop
  endfacet
  facet normal 0 0 1
    outer loop
      vertex 1 0 1.5
      vertex 6.15182 -3.741 1.5
      vertex 6.933 -1.94254 1.5
    endloop
  endfacet
  facet normal -0 0 1
    outer loop
      vertex 1 0 1.5
      vertex 6.933 -1.94254 1.5
      vertex 7.2 0 1.5
    endloop
  endfacet
  facet normal 0 -0 1
    outer loop
      vertex -0.809017 -0.587786 1.5
      vertex -0.809017 0.587786 1.5
      vertex -7.13294 0.9804 1.5
    endloop
  endfacet
  facet normal 0 0 1
    outer loop
      vertex 6.15182 3.741 1.5
      vertex 1 0 1.5
      vertex 6.933 1.94254 1.5
    endloop
  endfacet
  facet normal 0 0 1
    outer loop
      vertex 3.31247 6.39277 1.5
      vertex 0.309017 0.951056 1.5
      vertex 4.91438 5.26202 1.5
    endloop
  endfacet
  facet normal 0 0 1
    outer loop
      vertex 1.46488 7.04941 1.5
      vertex -0.491345 7.18322 1.5
      vertex 0.309017 0.951056 1.5
    endloop
  endfacet
  facet normal 0 0 1
    outer loop
      vertex 1.46488 7.04941 1.5
      vertex 0.309017 0.951056 1.5
      vertex 3.31247 6.39277 1.5
    endloop
  endfacet
  facet normal -0 0 1
    outer loop
      vertex -6.60392 2.86849 1.5
      vertex -0.809017 0.587786 1.5
      vertex -5.58512 4.54383 1.5
    endloop
  endfacet
  facet normal -0 0 1
    outer loop
      vertex -2.41113 6.78428 1.5
      vertex 0.309017 0.951056 1.5
      vertex -0.491345 7.18322 1.5
    endloop
  endfacet
  facet normal 0 0 1
    outer loop
      vertex 0.309017 0.951056 1.5
      vertex -2.41113 6.78428 1.5
      vertex -0.809017 0.587786 1.5
    endloop
  endfacet
  facet normal 0 0 1
    outer loop
      vertex -0.809017 0.587786 1.5
      vertex -4.1521 5.88218 1.5
      vertex -5.58512 4.54383 1.5
    endloop
  endfacet
  facet normal 0 0 1
    outer loop
      vertex -2.41113 6.78428 1.5
      vertex -4.1521 5.88218 1.5
      vertex -0.809017 0.587786 1.5
    endloop
  endfacet
  facet normal 0 0 1
    outer loop
      vertex -0.809017 0.587786 1.5
      vertex -6.60392 2.86849 1.5
      vertex -7.13294 0.9804 1.5
    endloop
  endfacet
  facet normal 0 -0 1
    outer loop
      vertex -6.60392 -2.86849 1.5
      vertex -0.809017 -0.587786 1.5
      vertex -7.13294 -0.9804 1.5
    endloop
  endfacet
  facet normal -0 0 1
    outer loop
      vertex -4.1521 -5.88218 1.5
      vertex -2.41113 -6.78428 1.5
      vertex -0.809017 -0.587786 1.5
    endloop
  endfacet
  facet normal 0 0 1
    outer loop
      vertex -0.809017 -0.587786 1.5
      vertex -6.60392 -2.86849 1.5
      vertex -5.58512 -4.54383 1.5
    endloop
  endfacet
  facet normal 0 0 1
    outer loop
      vertex -7.13294 -0.9804 1.5
      vertex -0.809017 -0.587786 1.5
      vertex -7.13294 0.9804 1.5
    endloop
  endfacet
  facet normal 0 0 1
    outer loop
      vertex 0.309017 -0.951056 1.5
      vertex 3.31247 -6.39277 1.5
      vertex 4.91438 -5.26202 1.5
    endloop
  endfacet
  facet normal 0 0 1
    outer loop
      vertex 6.15182 3.741 1.5
      vertex 0.309017 0.951056 1.5
      vertex 1 0 1.5
    endloop
  endfacet
  facet normal 0 0 1
    outer loop
      vertex 6.15182 3.741 1.5
      vertex 4.91438 5.26202 1.5
      vertex 0.309017 0.951056 1.5
    endloop
  endfacet
  facet normal 0 0 1
    outer loop
      vertex 0.309017 -0.951056 1.5
      vertex 4.91438 -5.26202 1.5
      vertex 6.15182 -3.741 1.5
    endloop
  endfacet
  facet normal 0 -0 1
    outer loop
      vertex -0.491345 -7.18322 1.5
      vertex 0.309017 -0.951056 1.5
      vertex -2.41113 -6.78428 1.5
    endloop
  endfacet
  facet normal 0 -0 1
    outer loop
      vertex -4.1521 -5.88218 1.5
      vertex -0.809017 -0.587786 1.5
      vertex -5.58512 -4.54383 1.5
    endloop
  endfacet
  facet normal -0.809017 -0.587785 0
    outer loop
      vertex 1 0 0
      vertex 1 0 1.5
      vertex 0.309017 0.951056 1.5
    endloop
  endfacet
  facet normal -0.809017 -0.587785 0
    outer loop
      vertex 0.309017 0.951056 0
      vertex 1 0 0
      vertex 0.309017 0.951056 1.5
    endloop
  endfacet
  facet normal 0.309017 -0.951057 0
    outer loop
      vertex 0.309017 0.951056 0
      vertex 0.309017 0.951056 1.5
      vertex -0.809017 0.587786 1.5
    endloop
  endfacet
  facet normal 0.309017 -0.951057 0
    outer loop
      vertex -0.809017 0.587786 0
      vertex 0.309017 0.951056 0
      vertex -0.809017 0.587786 1.5
    endloop
  endfacet
  facet normal 1 0 -0
    outer loop
      vertex -0.809017 0.587786 0
      vertex -0.809017 0.587786 1.5
      vertex -0.809017 -0.587786 1.5
    endloop
  endfacet
  facet normal 1 0 0
    outer loop
      vertex -0.809017 -0.587786 0
      vertex -0.809017 0.587786 0
      vertex -0.809017 -0.587786 1.5
    endloop
  endfacet
  facet normal 0.309017 0.951057 0
    outer loop
      vertex -0.809017 -0.587786 1.5
      vertex 0.309017 -0.951056 1.5
      vertex 0.309017 -0.951056 0
    endloop
  endfacet
  facet normal 0.309017 0.951057 -0
    outer loop
      vertex -0.809017 -0.587786 0
      vertex -0.809017 -0.587786 1.5
      vertex 0.309017 -0.951056 0
    endloop
  endfacet
  facet normal -0.809017 0.587785 0
    outer loop
      vertex 0.309017 -0.951056 1.5
      vertex 1 0 1.5
      vertex 1 0 0
    endloop
  endfacet
  facet normal -0.809017 0.587785 0
    outer loop
      vertex 0.309017 -0.951056 0
      vertex 0.309017 -0.951056 1.5
      vertex 1 0 0
    endloop
  endfacet
endsolid OpenSCAD_Model
